<?xml version="1.0" standalone="no"?>
<!DOCTYPE svg PUBLIC "-//W3C//DTD SVG 1.1//EN" "http://www.w3.org/Graphics/SVG/1.1/DTD/svg11.dtd" >
<svg xmlns="http://www.w3.org/2000/svg">
<metadata></metadata>
<defs>
<font id="proxima_nova_rgitalic" horiz-adv-x="1252" >
<font-face units-per-em="2048" ascent="1618" descent="-430" />
<missing-glyph horiz-adv-x="567" />
<glyph unicode="&#xfb01;" horiz-adv-x="1114" d="M92 0l201 914h-174l32 144h175l19 82q37 164 121 253.5t226 89.5q53 0 99 -10.5t90 -39.5l-64 -118q-24 17 -52.5 25t-59.5 8q-81 0 -127.5 -55t-69.5 -153l-17 -82h214l-32 -144h-215l-201 -914h-165zM669 0l234 1058h164l-235 -1058h-163zM929 1306q0 57 40.5 91 t84.5 34t72.5 -28.5t28.5 -68.5q0 -59 -40.5 -92t-84.5 -33q-43 0 -72 29t-29 68z" />
<glyph unicode="&#xfb02;" horiz-adv-x="1114" d="M92 0l201 914h-174l32 144h175l19 82q37 164 121 253.5t226 89.5q53 0 99 -10.5t90 -39.5l-64 -118q-24 17 -52.5 25t-59.5 8q-81 0 -127.5 -55t-69.5 -153l-17 -82h214l-32 -144h-215l-201 -914h-165zM669 0l322 1462h164l-323 -1462h-163z" />
<glyph unicode="&#xfb03;" horiz-adv-x="1735" d="M92 0l201 914h-174l32 144h175l19 82q17 74 44 137.5t70 109.5t99.5 71t133.5 25q73 0 129.5 -20.5t105.5 -68.5l-88 -101q-25 26 -55 40.5t-79 14.5q-83 0 -128.5 -55t-68.5 -153l-17 -82h214l-32 -144h-215l-201 -914h-165zM715 0l201 914h-176l34 144h175l17 82 q38 164 122.5 253.5t226.5 89.5q52 0 98 -10.5t90 -39.5l-63 -118q-24 17 -52.5 25t-59.5 8q-81 0 -128.5 -55t-68.5 -153l-18 -82h215l-33 -144h-214l-203 -914h-163zM1288 0l235 1058h164l-234 -1058h-165zM1549 1306q0 57 41 91t85 34q43 0 71.5 -28.5t28.5 -68.5 q0 -59 -40.5 -92t-84.5 -33t-72.5 29t-28.5 68z" />
<glyph unicode="&#xfb04;" horiz-adv-x="1735" d="M92 0l201 914h-174l32 144h175l19 82q17 74 44 137.5t70 109.5t99.5 71t133.5 25q73 0 129.5 -20.5t105.5 -68.5l-88 -101q-25 26 -55 40.5t-79 14.5q-83 0 -128.5 -55t-68.5 -153l-17 -82h214l-32 -144h-215l-201 -914h-165zM715 0l201 914h-176l34 144h175l17 82 q38 164 122.5 253.5t226.5 89.5q52 0 98 -10.5t90 -39.5l-63 -118q-24 17 -52.5 25t-59.5 8q-81 0 -128.5 -55t-68.5 -153l-18 -82h215l-33 -144h-214l-203 -914h-163zM1288 0l322 1462h165l-322 -1462h-165z" />
<glyph horiz-adv-x="2048" />
<glyph horiz-adv-x="2048" />
<glyph unicode="&#xd;" horiz-adv-x="567" />
<glyph unicode=" "  horiz-adv-x="567" />
<glyph unicode="&#x09;" horiz-adv-x="567" />
<glyph unicode="&#xa0;" horiz-adv-x="567" />
<glyph unicode="!" horiz-adv-x="503" d="M35 90q0 52 38 90.5t94 38.5q46 0 77.5 -33t31.5 -79q0 -55 -38.5 -91.5t-93.5 -36.5q-46 0 -77.5 31.5t-31.5 79.5zM155 410l198 1052h206l-268 -1052h-136z" />
<glyph unicode="&#x22;" horiz-adv-x="753" d="M255 903q13 119 21 217q4 42 7.5 82t6.5 74.5t6 57.5t3 29q4 53 35.5 86.5t81.5 33.5q38 0 63 -25t25 -67q0 -13 -4.5 -27t-6.5 -23q-2 -5 -9 -24.5t-18.5 -51t-25 -71t-28.5 -79.5q-35 -94 -77 -212h-80zM577 903q13 119 21 217q4 42 7.5 82t6.5 74.5t6 57.5t3 29 q4 53 35.5 86.5t81.5 33.5q38 0 63 -25t25 -67q0 -13 -4.5 -27t-8.5 -23q0 -5 -8 -24.5t-18.5 -51t-25 -71t-27.5 -79.5q-35 -94 -77 -212h-80z" />
<glyph unicode="#" horiz-adv-x="1294" d="M17 397l62 116h237l240 436h-236l59 114h244l216 399h136l-219 -399h241l220 399h133l-221 -399h234l-57 -114h-239l-245 -436h243l-61 -116h-245l-220 -397h-133l221 397h-244l-218 -397h-136l220 397h-232zM449 513h239l243 436h-241z" />
<glyph unicode="$" horiz-adv-x="1298" d="M46 236l125 130q57 -79 143.5 -135t191.5 -80l119 528q-71 29 -137.5 62t-119 76.5t-86 102.5t-33.5 138q0 86 38.5 162.5t107.5 136t164.5 94.5t209.5 35q9 0 16.5 -1.5t19.5 -1.5l44 200h133l-49 -215q117 -25 211 -80.5t151 -134.5l-122 -126q-51 70 -123.5 112.5 t-152.5 64.5l-106 -478q70 -31 138 -64.5t121.5 -78.5t87 -105.5t33.5 -140.5q0 -88 -35.5 -171.5t-102.5 -148.5t-166.5 -104.5t-228.5 -39.5q-11 0 -19 1t-19 1l-41 -194h-134l46 208q-145 27 -255.5 92.5t-169.5 154.5zM445 1085q0 -75 65 -122t159 -87l98 448h-20 q-63 0 -119 -20t-96.5 -52.5t-63.5 -76.5t-23 -90zM638 136h15q85 0 146.5 25t100 64.5t57 88t18.5 94.5q0 81 -66 130t-162 91z" />
<glyph unicode="%" horiz-adv-x="1603" d="M163 0l1255 1462h123l-1259 -1462h-119zM190 1058q0 94 32.5 173.5t87 135t124.5 86t147 30.5q67 0 126.5 -20.5t103.5 -59t70 -93t26 -122.5q0 -97 -32 -175t-85.5 -133.5t-124.5 -86t-148 -30.5q-65 0 -125.5 21t-104.5 59t-70.5 93t-26.5 122zM322 1069 q0 -84 55.5 -139.5t143.5 -55.5q50 0 98 23t82.5 62.5t55.5 95.5t21 122q0 83 -57 139t-144 56q-51 0 -97 -23t-81 -62.5t-56 -95.5t-21 -122zM778 270q0 94 31.5 172.5t86.5 134.5t125 86.5t147 30.5q68 0 127.5 -20.5t104 -58.5t71 -93t26.5 -123q0 -96 -32 -174 t-86.5 -134t-125 -87t-147.5 -31q-67 0 -126.5 21t-104.5 59.5t-71 93t-26 123.5zM910 280q0 -83 55.5 -138.5t143.5 -55.5q50 0 97 23t82.5 62.5t56 95t20.5 120.5q0 84 -57 140t-145 56q-50 0 -96 -23t-81 -62.5t-55.5 -95t-20.5 -122.5z" />
<glyph unicode="&#x26;" horiz-adv-x="1405" d="M35 339q0 105 36 183t95.5 136.5t137 100t160.5 73.5q-24 66 -37 128.5t-13 126.5q0 81 33 153.5t89 127t129 85t155 30.5q65 0 124.5 -16t104.5 -49t70 -82.5t25 -112.5q0 -96 -40.5 -164t-107.5 -117.5t-151 -87t-172 -70.5q50 -109 111 -207q38 -63 70.5 -118.5 t67.5 -107.5q80 86 141.5 173t93.5 149l125 -77q-57 -86 -127 -181t-153 -181q39 -54 83 -112.5t94 -121.5h-209q-21 27 -45 57.5t-49 65.5q-90 -67 -189.5 -108.5t-211.5 -41.5q-92 0 -171.5 23t-140 69t-94.5 114t-34 160zM219 362q0 -63 23 -111t61 -79.5t88 -47 t104 -15.5q77 0 155 35.5t147 91.5q-48 71 -89 133t-66 106q-37 63 -69 124.5t-60 119.5q-61 -29 -114.5 -61.5t-93.5 -75.5t-63 -97t-23 -123zM585 1087q0 -44 11 -93t29 -99q73 26 138 54t114.5 64.5t79.5 82.5t30 109q0 75 -49 113.5t-114 38.5q-42 0 -84.5 -18 t-76.5 -52t-56 -84.5t-22 -115.5z" />
<glyph unicode="'" horiz-adv-x="435" d="M255 903q13 119 21 217q4 42 7.5 82t6.5 74.5t6 57.5t3 29q4 53 35.5 86.5t81.5 33.5q38 0 63 -25t25 -67q0 -13 -4.5 -27t-6.5 -23q-2 -5 -9 -24.5t-18.5 -51t-25 -71t-28.5 -79.5q-35 -94 -77 -212h-80z" />
<glyph unicode="(" horiz-adv-x="542" d="M55 199q0 345 145 679t418 623l85 -83q-224 -291 -349.5 -607t-125.5 -673q0 -123 23 -257t58 -251l-116 -67q-66 132 -102 294t-36 342z" />
<glyph unicode=")" horiz-adv-x="542" d="M-163 -353q224 291 350.5 606.5t126.5 673.5q0 123 -23 256.5t-59 251.5l117 66q65 -131 101.5 -292t36.5 -343q0 -345 -145 -679t-419 -624z" />
<glyph unicode="*" horiz-adv-x="744" d="M188 1087l251 90l-198 136l68 78l180 -155l42 247h102l-70 -256l242 112l27 -90l-245 -90l195 -136l-67 -78l-182 155l-42 -247h-100l69 256l-241 -110z" />
<glyph unicode="+" horiz-adv-x="1092" d="M96 682l25 113h420l99 454h127l-100 -454h420l-27 -113h-418l-105 -467h-125l103 467h-419z" />
<glyph unicode="," horiz-adv-x="503" d="M-40 -193q59 31 113 80.5t71 103.5h-17q-37 0 -65.5 26.5t-28.5 72.5q0 52 40 90.5t92 38.5q48 0 81.5 -32t33.5 -95q0 -52 -20.5 -103.5t-54.5 -100t-80 -88t-96 -65.5z" />
<glyph unicode="-" horiz-adv-x="656" d="M48 458l31 144h526l-30 -144h-527z" />
<glyph unicode="." horiz-adv-x="506" d="M35 90q0 52 38 90.5t94 38.5q46 0 77.5 -33t31.5 -79q0 -55 -38.5 -91.5t-93.5 -36.5q-46 0 -77.5 31.5t-31.5 79.5z" />
<glyph unicode="/" horiz-adv-x="648" d="M-132 -44l862 1549h138l-864 -1549h-136z" />
<glyph unicode="0" horiz-adv-x="1340" d="M129 544q0 164 48.5 331.5t137 302.5t216.5 220t289 85q113 0 202 -39t150.5 -113.5t92 -178.5t30.5 -236q0 -165 -47 -333.5t-136 -303.5t-216 -220.5t-287 -85.5q-117 0 -205 41t-149.5 114t-93.5 178.5t-32 237.5zM314 533q0 -86 17.5 -158t54.5 -125t96 -83.5 t143 -30.5q113 0 203 75.5t152.5 192.5t95.5 256.5t33 266.5q0 85 -16.5 157.5t-53.5 125.5t-96.5 82t-142.5 29q-113 0 -203.5 -75t-153 -190t-96 -256t-33.5 -267z" />
<glyph unicode="1" horiz-adv-x="742" d="M169 1085l446 377h161l-322 -1462h-182l269 1223l-288 -250z" />
<glyph unicode="2" horiz-adv-x="1288" d="M0 0l40 180q219 134 405 255t320 233t209.5 216.5t75.5 206.5q0 110 -89 170t-227 60q-125 0 -216 -39.5t-158 -102.5l-86 130q83 79 208 126.5t263 47.5q96 0 186 -23t159 -71t110.5 -119.5t41.5 -169.5q0 -125 -74 -244.5t-200.5 -236.5t-294 -231t-351.5 -225h717 l-35 -163h-1004z" />
<glyph unicode="3" horiz-adv-x="1219" d="M-6 278l131 103q57 -117 174 -181t251 -64q165 0 257 87.5t92 219.5q0 101 -83.5 163.5t-240.5 62.5h-83.5t-57.5 -2l39 165q9 0 32.5 -1t52.5 -1h59.5h53.5q67 0 131 15.5t113 47t77.5 81t28.5 115.5q0 99 -89 165.5t-244 66.5q-94 0 -189.5 -32.5t-180.5 -109.5 l-77 123q85 84 206.5 132.5t253.5 48.5q109 0 202.5 -24t160.5 -71t105 -116t38 -157q0 -84 -35 -150t-92 -114.5t-128 -76t-141 -34.5q55 -12 103 -37.5t84.5 -65t58.5 -92t22 -118.5q0 -94 -38.5 -176t-109 -143.5t-166.5 -98t-213 -36.5q-92 0 -181 22t-162 61.5 t-130.5 96t-84.5 125.5z" />
<glyph unicode="4" horiz-adv-x="1221" d="M33 370l38 167l821 925h258l-205 -931h205l-35 -161h-205l-82 -370h-182l82 370h-695zM249 531h514l168 762z" />
<glyph unicode="5" horiz-adv-x="1292" d="M77 265l138 109q113 -238 406 -238q77 0 142 27t114.5 74.5t78 111t28.5 138.5q0 67 -25.5 118.5t-69 87t-104 54t-130.5 18.5q-90 0 -162 -26t-142 -80l-119 60l163 743h893l-35 -163h-712l-107 -482q51 42 129.5 70.5t176.5 28.5q88 0 167.5 -26.5t138 -77.5t94 -128 t35.5 -178q0 -107 -42 -203t-115 -170t-177.5 -117t-229.5 -43q-197 0 -327.5 74t-206.5 218z" />
<glyph unicode="6" horiz-adv-x="1294" d="M121 513q0 153 43 324t131 314.5t224 237.5t320 94q155 0 266.5 -58t174.5 -160l-123 -123q-44 85 -129 132t-200 47q-105 0 -187 -49t-142 -128t-102 -176.5t-66 -193.5q-11 -34 -11 -46q29 33 74 65.5t99.5 60t118 45t128.5 17.5q97 0 178 -26.5t140 -76.5t92 -121 t33 -161q0 -112 -43.5 -213t-119 -178t-178.5 -122t-221 -45q-241 0 -370.5 141t-129.5 399zM295 480q0 -153 85 -248.5t243 -95.5q81 0 148.5 30.5t117 81.5t78 118.5t28.5 139.5q0 121 -91 190t-235 69q-107 0 -201 -49t-167 -133q-2 -13 -4 -48t-2 -55z" />
<glyph unicode="7" horiz-adv-x="1127" d="M142 0l872 1299h-778l36 163h997l-29 -126l-887 -1336h-211z" />
<glyph unicode="8" horiz-adv-x="1274" d="M65 347q0 164 122 274.5t321 152.5q-46 19 -92 48t-81.5 68t-57.5 87t-22 106q0 103 47 178t121.5 124.5t166.5 73.5t184 24q96 0 186 -23t160 -69t111.5 -112.5t41.5 -153.5q0 -80 -30.5 -145.5t-85.5 -115t-131.5 -82.5t-166.5 -46q46 -21 95.5 -53t89 -75t64.5 -97.5 t25 -119.5q0 -92 -42.5 -169.5t-117 -132t-172.5 -85.5t-205 -31q-109 0 -206 23t-169 70t-114 118t-42 163zM259 379q0 -59 27.5 -105t73.5 -76.5t108 -46t132 -15.5q66 0 128.5 18.5t111.5 53.5t80 86t31 114q0 52 -27 96t-69 77.5t-92 56.5t-94 35q-88 -4 -163 -27 t-129.5 -61.5t-86 -91t-31.5 -114.5zM437 1065q0 -46 25 -84t64 -69t86 -53t89 -31q81 7 150 26.5t119.5 54t79.5 81.5t29 106q0 48 -25.5 88.5t-68 70t-100 47t-122.5 17.5q-63 0 -122.5 -16.5t-104.5 -49t-72 -79.5t-27 -109z" />
<glyph unicode="9" horiz-adv-x="1294" d="M98 195l123 123q44 -86 130 -133t199 -47q107 0 189.5 49t143 128.5t100.5 177t65 193.5q4 15 7 27t5 19q-31 -33 -74 -66t-99.5 -60t-119 -44.5t-127.5 -17.5q-96 0 -177.5 26t-140.5 76.5t-93 121.5t-34 161q0 111 43.5 212t119.5 178t179 122t224 45 q238 0 368.5 -140.5t130.5 -398.5q0 -103 -18.5 -214.5t-58 -219t-99 -205t-139 -171.5t-182 -118t-224.5 -44q-153 0 -264.5 58.5t-176.5 161.5zM385 953q0 -121 90 -190t235 -69q107 0 200.5 49.5t170.5 132.5q2 15 3 49.5t1 53.5q0 153 -85.5 249t-243.5 96 q-81 0 -149 -30.5t-117 -81.5t-77 -119t-28 -140z" />
<glyph unicode=":" horiz-adv-x="492" d="M35 90q0 52 38 90.5t94 38.5q46 0 77.5 -33t31.5 -79q0 -55 -38.5 -91.5t-93.5 -36.5q-46 0 -77.5 31.5t-31.5 79.5zM224 945q0 54 38.5 91.5t92.5 37.5q46 0 77.5 -32t31.5 -78q0 -54 -38.5 -93t-92.5 -39q-46 0 -77.5 33.5t-31.5 79.5z" />
<glyph unicode=";" horiz-adv-x="503" d="M-40 -193q59 31 113 80.5t71 103.5h-17q-37 0 -65.5 26.5t-28.5 72.5q0 52 40 90.5t92 38.5q48 0 81.5 -32t33.5 -95q0 -52 -20.5 -103.5t-54.5 -100t-80 -88t-96 -65.5zM224 945q0 54 38.5 91.5t92.5 37.5q46 0 77.5 -32t31.5 -78q0 -54 -38.5 -93t-92.5 -39 q-46 0 -77.5 33.5t-31.5 79.5z" />
<glyph unicode="&#x3c;" horiz-adv-x="1092" d="M92 675l29 116l1071 480l-33 -144l-914 -402l737 -397l-29 -131z" />
<glyph unicode="=" horiz-adv-x="1092" d="M46 462l27 117h966l-27 -117h-966zM140 885l27 117h966l-27 -117h-966z" />
<glyph unicode="&#x3e;" horiz-adv-x="1092" d="M-13 197l32 144l916 397l-738 402l29 131l859 -480l-27 -116z" />
<glyph unicode="?" horiz-adv-x="1012" d="M199 1304q101 94 209.5 136.5t231.5 42.5q94 0 175.5 -23t140 -64t92 -100.5t33.5 -132.5q0 -96 -41 -163t-103.5 -115t-133.5 -83t-133.5 -71.5t-103 -78t-40.5 -102.5q0 -17 7.5 -40t29.5 -46l-147 -58q-50 65 -50 155q0 79 38.5 132.5t96.5 94t124.5 74t125 70 t96.5 84t38 117.5q0 84 -69 136t-198 52q-194 0 -336 -140zM272 90q0 52 39.5 90.5t94.5 38.5q46 0 77.5 -33t31.5 -79q0 -55 -40 -91.5t-94 -36.5q-46 0 -77.5 31.5t-31.5 79.5z" />
<glyph unicode="@" horiz-adv-x="1715" d="M121 535q0 178 72 334t191.5 275t277.5 186.5t329 67.5q155 0 282.5 -55t218.5 -149t140 -219.5t49 -271.5q0 -129 -33 -225.5t-88 -160.5t-122.5 -97.5t-135.5 -33.5q-92 0 -144 53.5t-56 124.5v15q-57 -84 -150 -138.5t-198 -54.5q-153 0 -244.5 98.5t-91.5 259.5 q0 113 44 214t116.5 175.5t165.5 117.5t189 43q107 0 178.5 -50.5t102.5 -121.5l28 136h149l-124 -594q-2 -10 -3 -22.5t-1 -23.5q0 -54 29 -83.5t73 -29.5q33 0 73.5 20t78 66t62.5 122.5t25 189.5q0 134 -45 248t-126 197.5t-194.5 129.5t-254.5 46q-160 0 -302.5 -65 t-251 -173.5t-172 -251t-63.5 -295.5q0 -131 47 -244t130.5 -197.5t199.5 -131.5t252 -47q119 0 218.5 33t189.5 90l39 -57q-103 -65 -218 -101.5t-238 -36.5q-148 0 -275.5 52.5t-220.5 145.5t-145.5 219.5t-52.5 270.5zM577 552q0 -105 58 -174t165 -69q55 0 104 18t90 46 t73.5 63t57.5 70l63 305q-9 27 -27.5 54t-46 51.5t-66 39t-86.5 14.5q-84 0 -154 -34.5t-121 -94t-80.5 -135t-29.5 -154.5z" />
<glyph unicode="A" horiz-adv-x="1441" d="M-98 0l911 1462h226l265 -1462h-198l-58 326h-728l-201 -326h-217zM410 487h620l-135 788z" />
<glyph unicode="B" horiz-adv-x="1378" d="M52 0l322 1462h608q82 0 149 -25.5t116.5 -69t78.5 -106.5t29 -134q0 -77 -28 -145t-74 -120.5t-107 -87t-130 -40.5q47 -13 86.5 -41.5t67.5 -69t43.5 -89.5t15.5 -100q0 -81 -29 -159t-90.5 -139t-156 -98.5t-223.5 -37.5h-678zM270 163h455q80 0 138.5 24t98.5 63 t60.5 91t20.5 106q0 94 -61.5 157t-172.5 63h-428zM416 828h454q81 0 135.5 24t89 64t48.5 88t14 96q0 86 -63.5 142.5t-158.5 56.5h-414z" />
<glyph unicode="C" horiz-adv-x="1480" d="M132 613q0 197 69 358.5t183 275.5t262.5 176.5t306.5 62.5q220 0 370.5 -93.5t228.5 -250.5l-176 -68q-63 130 -179 190t-252 60q-119 0 -231 -50.5t-198.5 -142.5t-139 -221.5t-52.5 -286.5q0 -107 34.5 -197.5t98.5 -153.5t155 -99.5t205 -36.5q103 0 204 42.5 t188 126.5l136 -104q-119 -123 -260.5 -175.5t-277.5 -52.5q-145 0 -269 45t-215 129.5t-141 203t-50 262.5z" />
<glyph unicode="D" horiz-adv-x="1533" d="M52 0l322 1462h489q124 0 233 -46t192.5 -129.5t132.5 -197.5t49 -252q0 -149 -54.5 -297.5t-167.5 -269.5t-286 -195.5t-412 -74.5h-498zM270 163h311q161 0 291 53.5t219.5 144.5t139 211t49.5 256q0 101 -34 187.5t-94.5 150t-144 98.5t-179.5 35h-307z" />
<glyph unicode="E" horiz-adv-x="1246" d="M52 0l322 1462h958l-35 -163h-776l-105 -471h763l-37 -161h-761l-111 -504h775l-35 -163h-958z" />
<glyph unicode="F" horiz-adv-x="1206" d="M52 0l322 1462h958l-35 -163h-776l-105 -471h763l-37 -161h-761l-147 -667h-182z" />
<glyph unicode="G" horiz-adv-x="1562" d="M132 613q0 191 65.5 351.5t179.5 276.5t266 180.5t323 64.5q209 0 354.5 -91t222.5 -229l-165 -75q-57 112 -174 172.5t-259 60.5q-123 0 -235 -52.5t-197.5 -145.5t-137 -221.5t-51.5 -281.5q0 -109 35.5 -198.5t98.5 -153.5t155 -99.5t204 -35.5q126 0 221 47t165 108 l66 299h-504l35 161h686l-119 -534q-113 -119 -254 -181.5t-306 -62.5q-149 0 -274 47t-214 131.5t-138 202t-49 259.5z" />
<glyph unicode="H" horiz-adv-x="1560" d="M52 0l322 1462h182l-138 -630h855l138 630h182l-322 -1462h-182l147 671h-855l-147 -671h-182z" />
<glyph unicode="I" horiz-adv-x="523" d="M52 0l322 1462h182l-322 -1462h-182z" />
<glyph unicode="J" horiz-adv-x="1040" d="M-48 157l109 132q40 -71 110 -112t166 -41q138 0 219.5 84.5t112.5 222.5l223 1019h182l-225 -1021q-53 -239 -179 -353.5t-323 -114.5q-126 0 -231 46t-164 138z" />
<glyph unicode="K" horiz-adv-x="1316" d="M52 0l322 1462h182l-163 -739l799 739h239l-762 -693l494 -769h-214l-416 667l-192 -176l-107 -491h-182z" />
<glyph unicode="L" horiz-adv-x="1079" d="M29 0l322 1462h182l-288 -1299h679l-35 -163h-860z" />
<glyph unicode="M" horiz-adv-x="1771" d="M52 0l322 1462h255l203 -1127l705 1127h269l-323 -1462h-181l271 1229l-766 -1229h-75l-226 1229l-272 -1229h-182z" />
<glyph unicode="N" horiz-adv-x="1550" d="M52 0l322 1462h187l585 -1153l257 1153h182l-322 -1462h-176l-592 1177l-261 -1177h-182z" />
<glyph unicode="O" horiz-adv-x="1675" d="M132 613q0 184 64.5 343t175.5 277.5t260.5 185.5t320.5 67q141 0 263.5 -42.5t214.5 -124t145 -201t53 -269.5q0 -185 -64 -344.5t-175.5 -277.5t-261.5 -186t-321 -68q-140 0 -263 43t-215.5 125.5t-144.5 201.5t-52 270zM324 623q0 -119 38.5 -209t106.5 -152.5 t157 -94t191 -31.5q126 0 237.5 52.5t196.5 145.5t134.5 222.5t49.5 280.5q0 119 -38 208.5t-106 152t-158 94.5t-190 32q-126 0 -238.5 -52.5t-197 -145.5t-134 -222.5t-49.5 -280.5z" />
<glyph unicode="P" horiz-adv-x="1286" d="M52 0l322 1462h569q83 0 153 -30.5t121.5 -82.5t80 -121t28.5 -143q0 -83 -29.5 -173t-96.5 -163.5t-174.5 -120.5t-260.5 -47h-403l-128 -581h-182zM397 743h383h-2q88 0 154.5 26t111.5 71t68 104.5t23 124.5q0 46 -18.5 89t-50 74t-76.5 49t-98 18h-371z" />
<glyph unicode="Q" horiz-adv-x="1675" d="M132 613q0 184 64.5 343t175.5 277.5t260.5 185.5t320.5 67q141 0 263.5 -42.5t214.5 -124t145 -201t53 -269.5q0 -222 -91 -406t-243 -303l90 -127l-145 -80l-85 119q-80 -37 -167 -58t-181 -21q-140 0 -263 43t-215.5 125.5t-144.5 201.5t-52 270zM324 623 q0 -119 38.5 -209t106.5 -152.5t157 -94t191 -31.5q126 0 241 54l-173 247l145 78l166 -235q107 94 173 236.5t66 320.5q0 119 -38 208.5t-106 152t-158 94.5t-190 32q-126 0 -238.5 -52.5t-197 -145.5t-134 -222.5t-49.5 -280.5z" />
<glyph unicode="R" horiz-adv-x="1334" d="M52 0l322 1462h538q79 0 153.5 -25.5t132.5 -74.5t93 -120t35 -161q0 -101 -34 -187.5t-96.5 -151.5t-150 -105.5t-194.5 -46.5l262 -590h-201l-245 581h-305l-128 -581h-182zM397 740h381h4q86 0 151.5 26.5t110.5 70.5t68 103t23 125q0 52 -20.5 95t-56 74t-80.5 48 t-93 17h-364z" />
<glyph unicode="S" horiz-adv-x="1284" d="M35 236l125 130q78 -105 202.5 -167.5t279.5 -62.5q86 0 147.5 25t99.5 64.5t56.5 88t18.5 94.5q0 72 -53.5 119.5t-135 84t-174.5 73t-173.5 84.5t-134.5 117.5t-54 171.5q0 86 38.5 162.5t107.5 136t164 94.5t210 35q169 0 308.5 -62.5t216.5 -170.5l-123 -126 q-75 100 -189.5 148.5t-235.5 48.5q-63 0 -119 -20t-96.5 -52.5t-63.5 -76.5t-23 -90q0 -65 53.5 -110.5t134.5 -82.5t174 -73.5t174.5 -86.5t135 -120.5t53.5 -174.5q0 -88 -35 -171.5t-101.5 -148.5t-166.5 -104.5t-229 -39.5q-98 0 -189 20t-168 55t-137 83.5t-98 104.5z " />
<glyph unicode="T" horiz-adv-x="1248" d="M239 1299l35 163h1108l-34 -163h-465l-287 -1299h-182l287 1299h-462z" />
<glyph unicode="U" horiz-adv-x="1535" d="M167 460q0 31 3 60.5t8 46.5l196 895h185l-197 -890q-2 -10 -6.5 -36t-4.5 -56q0 -74 26 -137t75.5 -109t120.5 -72t163 -26q101 0 176 30.5t129.5 86.5t89.5 137t57 182l197 890h184l-197 -893q-31 -136 -78 -245t-122.5 -187t-182 -121t-253.5 -43q-136 0 -242.5 34.5 t-178.5 98t-110 153.5t-38 201z" />
<glyph unicode="V" horiz-adv-x="1441" d="M224 1462h199l215 -1263l771 1263h217l-909 -1462h-226z" />
<glyph unicode="W" horiz-adv-x="1934" d="M234 1462h197l56 -1219l602 1219h153l67 -1219l591 1219h208l-741 -1462h-196l-62 1179l-583 -1179h-198z" />
<glyph unicode="X" horiz-adv-x="1428" d="M-92 0l738 763l-383 699h208l313 -581l550 581h239l-697 -724l408 -738h-208l-338 618l-596 -618h-234z" />
<glyph unicode="Y" horiz-adv-x="1371" d="M224 1462h199l305 -680l602 680h226l-761 -844l-136 -618h-182l136 618z" />
<glyph unicode="Z" horiz-adv-x="1281" d="M-13 0l32 151l1064 1148h-809l35 163h1056l-33 -151l-1067 -1148h829l-36 -163h-1071z" />
<glyph unicode="[" horiz-adv-x="531" d="M-123 -416l422 1902h406l-26 -121h-280l-368 -1660h280l-29 -121h-405z" />
<glyph unicode="\" horiz-adv-x="648" d="M215 1505h130l174 -1549h-128z" />
<glyph unicode="]" horiz-adv-x="531" d="M-173 -416l29 121h278l368 1660h-281l26 121h410l-423 -1902h-407z" />
<glyph unicode="^" horiz-adv-x="945" d="M83 730l532 732h125l207 -732h-130l-160 611l-431 -611h-143z" />
<glyph unicode="_" horiz-adv-x="1235" d="M-171 -209l29 121h1246l-28 -121h-1247z" />
<glyph unicode="`" horiz-adv-x="494" d="M221 1534h172l253 -315h-125z" />
<glyph unicode="a" horiz-adv-x="1259" d="M88 410q0 129 38.5 250.5t110.5 215.5t174 151.5t231 57.5q125 0 220.5 -53t147.5 -140l38 166h164l-235 -1058h-164l33 151q-65 -84 -153 -131t-195 -47q-90 0 -165.5 30t-130.5 85.5t-84.5 137t-29.5 184.5zM261 441q0 -149 82 -234.5t213 -85.5q101 0 186.5 53.5 t138.5 126.5l103 466q-39 71 -121 121t-199 50q-89 0 -164 -41.5t-127.5 -111.5t-82 -160t-29.5 -184z" />
<glyph unicode="b" horiz-adv-x="1259" d="M46 0l322 1462h165l-121 -555q65 84 153 131t196 47q92 0 166.5 -30t129 -85.5t84.5 -137t30 -184.5q0 -129 -38.5 -250.5t-111 -215.5t-175.5 -151.5t-231 -57.5q-125 0 -219.5 53t-148.5 141l-36 -167h-165zM274 291q40 -71 121.5 -120.5t198.5 -49.5q90 0 164 41 t127 112t82.5 159t29.5 185q0 149 -82.5 234.5t-213.5 85.5q-101 0 -186.5 -54t-137.5 -125z" />
<glyph unicode="c" horiz-adv-x="1086" d="M88 447q0 132 46 247t126.5 202.5t189.5 138t234 50.5q146 0 243.5 -53t153.5 -145l-125 -94q-42 73 -113.5 109t-154.5 36q-98 0 -178.5 -40.5t-136 -108.5t-85 -156.5t-29.5 -183.5q0 -81 25 -142.5t70 -102.5t105 -62t131 -21q83 0 152 34.5t117 91.5l92 -111 q-67 -71 -158 -117t-218 -46q-107 0 -196.5 33.5t-154 93.5t-100.5 147.5t-36 199.5z" />
<glyph unicode="d" horiz-adv-x="1259" d="M88 410q0 129 38.5 250.5t110.5 215.5t174 151.5t231 57.5q125 0 220.5 -53t147.5 -140l127 570h165l-325 -1462h-164l33 151q-65 -84 -153 -131t-195 -47q-90 0 -165.5 30t-130.5 85.5t-84.5 137t-29.5 184.5zM261 441q0 -149 82 -234.5t213 -85.5q101 0 186.5 53.5 t138.5 126.5l103 466q-39 71 -121 121t-199 50q-89 0 -164 -41.5t-127.5 -111.5t-82 -160t-29.5 -184z" />
<glyph unicode="e" horiz-adv-x="1233" d="M88 443q0 132 46 249t125.5 203.5t189.5 138t235 51.5q105 0 189.5 -34.5t143.5 -95t91 -146.5t32 -186q0 -38 -6.5 -80.5t-11.5 -67.5h-861q-2 -6 -3 -22t-1 -28q0 -61 23 -118.5t68 -100.5t111.5 -70t155.5 -27q77 0 159.5 27t145.5 79l57 -117q-73 -54 -171.5 -89.5 t-200.5 -35.5q-121 0 -217.5 34.5t-163.5 96t-101.5 147.5t-34.5 192zM276 598h706h7q0 7 1 19t1 21q0 133 -82.5 222t-239.5 89q-73 0 -139 -28.5t-118 -77t-87.5 -111.5t-48.5 -134z" />
<glyph unicode="f" horiz-adv-x="621" d="M92 0l201 914h-174l32 144h175l19 82q17 74 44 137.5t70 109.5t99.5 71t133.5 25q73 0 129.5 -20.5t105.5 -68.5l-88 -101q-25 26 -55 40.5t-79 14.5q-83 0 -128.5 -55t-68.5 -153l-17 -82h214l-32 -144h-215l-201 -914h-165z" />
<glyph unicode="g" horiz-adv-x="1259" d="M-9 -249l103 111q57 -81 150 -118t216 -37q59 0 114 16t102 54.5t83 102t58 155.5l32 134q-64 -81 -156.5 -129.5t-203.5 -48.5q-83 0 -156.5 26.5t-128.5 80t-86.5 136t-31.5 193.5q0 125 38.5 243.5t109.5 210.5t172.5 148t231.5 56q52 0 105.5 -14.5t103.5 -40.5 t90 -61.5t71 -76.5l37 166h167l-230 -1023q-31 -131 -82 -221t-120.5 -143.5t-149.5 -76.5t-166 -23q-150 0 -268.5 37t-204.5 143zM259 454q0 -149 79.5 -233.5t215.5 -84.5q92 0 180 50t144 121l101 456q-44 81 -133.5 128t-194.5 47q-90 0 -163.5 -41.5t-123.5 -109.5 t-77.5 -154.5t-27.5 -178.5z" />
<glyph unicode="h" horiz-adv-x="1209" d="M48 0l322 1462h163l-123 -557q70 68 165.5 124t208.5 56q140 0 228 -67t88 -194q0 -15 -4.5 -44t-8.5 -46l-160 -734h-164l153 697q4 12 7.5 34.5t3.5 37.5q0 92 -62.5 130.5t-156.5 38.5q-46 0 -91 -14t-87.5 -37.5t-80 -54t-68.5 -61.5l-168 -771h-165z" />
<glyph unicode="i" horiz-adv-x="492" d="M46 0l234 1058h165l-234 -1058h-165zM307 1306q0 57 40 91t84 34t73 -28.5t29 -68.5q0 -59 -40.5 -92t-84.5 -33t-72.5 29t-28.5 68z" />
<glyph unicode="j" horiz-adv-x="492" d="M-401 -337l81 116q25 -32 64 -52t85 -20q73 0 123 45t73 145l255 1161h165l-257 -1161q-37 -157 -114.5 -241.5t-222.5 -84.5q-83 0 -147 22t-105 70zM307 1306q0 57 40 91t84 34t73 -28.5t29 -68.5q0 -59 -40.5 -92t-84.5 -33t-72.5 29t-28.5 68z" />
<glyph unicode="k" horiz-adv-x="1125" d="M46 0l322 1462h165l-211 -956l671 552h216l-576 -479l344 -579h-197l-280 483l-222 -180l-67 -303h-165z" />
<glyph unicode="l" horiz-adv-x="492" d="M46 0l322 1462h165l-322 -1462h-165z" />
<glyph unicode="m" horiz-adv-x="1769" d="M46 0l234 1058h165l-35 -153q21 27 55.5 57.5t77 58t93 46t107.5 18.5q70 0 122.5 -22t87 -55t51.5 -69t17 -65v-2q31 40 70.5 78.5t84.5 68t97.5 48t108.5 18.5q55 0 106 -16.5t89 -49t61 -82.5t23 -113q0 -17 -3.5 -43.5t-7.5 -46.5l-162 -734h-164l157 710q2 9 4.5 25 t2.5 34q0 84 -54 126.5t-125 42.5q-77 0 -155 -50.5t-135 -116.5l-170 -771h-165l157 710q9 38 10 68q0 71 -46 115.5t-138 44.5q-77 0 -152.5 -51.5t-133.5 -115.5l-170 -771h-165z" />
<glyph unicode="n" horiz-adv-x="1209" d="M46 0l234 1058h165l-35 -153q70 68 165.5 124t208.5 56q140 0 228 -67t88 -194q0 -17 -4.5 -45t-8.5 -45l-163 -734h-161l153 694q4 18 7.5 36.5t3.5 38.5q0 92 -62.5 130.5t-156.5 38.5q-92 0 -178.5 -51.5t-148.5 -115.5l-170 -771h-165z" />
<glyph unicode="o" d="M88 445q0 125 43.5 240t122.5 203.5t187.5 142.5t235.5 54q114 0 203.5 -34.5t152.5 -96.5t95.5 -147.5t32.5 -191.5q0 -125 -43.5 -240.5t-122.5 -204.5t-187 -143t-236 -54q-113 0 -203.5 34.5t-153 97t-95 148.5t-32.5 192zM261 449q0 -150 82.5 -239t233.5 -89 q90 0 165 41t130 109t86 156t31 182q0 151 -82.5 240t-233.5 89q-90 0 -166 -41.5t-130.5 -109.5t-85 -155.5t-30.5 -182.5z" />
<glyph unicode="p" d="M-44 -403l324 1461h165l-33 -151q65 84 153 131t196 47q92 0 166.5 -30t129 -85.5t84.5 -137t30 -184.5q0 -129 -38.5 -250.5t-111 -215.5t-175.5 -151.5t-231 -57.5q-125 0 -219.5 53t-148.5 141l-126 -570h-165zM274 291q40 -71 121.5 -120.5t198.5 -49.5q90 0 164 41 t127 112t82.5 159t29.5 185q0 149 -82.5 234.5t-213.5 85.5q-101 0 -186.5 -54t-137.5 -125z" />
<glyph unicode="q" d="M88 410q0 129 38.5 250.5t110.5 215.5t174 151.5t231 57.5q125 0 220.5 -53t147.5 -140l38 166h164l-325 -1461h-164l123 554q-65 -84 -153 -131t-195 -47q-90 0 -165.5 30t-130.5 85.5t-84.5 137t-29.5 184.5zM261 441q0 -149 82 -234.5t213 -85.5q101 0 186.5 53.5 t138.5 126.5l103 466q-39 71 -121 121t-199 50q-89 0 -164 -41.5t-127.5 -111.5t-82 -160t-29.5 -184z" />
<glyph unicode="r" horiz-adv-x="722" d="M46 0l234 1058h165l-37 -159q79 88 169 136t225 48l-37 -171q-11 4 -33 6t-50 2q-92 0 -174.5 -52.5t-133.5 -120.5l-163 -747h-165z" />
<glyph unicode="s" horiz-adv-x="1018" d="M6 163l105 111q22 -31 57 -61.5t81 -53.5t100 -37.5t113 -14.5q117 0 180 57t63 129q0 50 -41 84.5t-102.5 60.5t-134 52.5t-134 61.5t-103 83.5t-41.5 123.5q0 65 26 124.5t78 104.5t126.5 71t170.5 26q136 0 243.5 -50.5t162.5 -122.5l-97 -107q-37 58 -125 102 t-193 44q-104 0 -165.5 -47t-61.5 -115q0 -49 41.5 -79.5t102.5 -56.5t133.5 -52t133.5 -62.5t103 -88t42 -128.5q0 -71 -27.5 -133t-80 -110t-130.5 -77t-178 -29q-145 0 -259 49t-189 141z" />
<glyph unicode="t" horiz-adv-x="644" d="M107 914l33 144h176l63 290h162l-64 -290h217l-33 -144h-214l-146 -653q-2 -8 -2 -19.5v-22.5q0 -98 104 -98q31 0 57.5 10.5t43.5 23.5l17 -130q-31 -25 -70 -38.5t-85 -13.5q-111 0 -177 46t-66 148q0 8 1 26t5 35l153 686h-175z" />
<glyph unicode="u" horiz-adv-x="1206" d="M107 234q0 17 3 45t9 45l161 734h165l-154 -694q-4 -15 -7.5 -35t-3.5 -38q0 -92 63 -131t157 -39q90 0 176.5 51.5t147.5 114.5l171 771h164l-235 -1058h-163l34 153q-71 -67 -164.5 -123.5t-207.5 -56.5q-143 0 -229.5 67t-86.5 194z" />
<glyph unicode="v" horiz-adv-x="1073" d="M123 1058h172l159 -868l545 868h184l-675 -1058h-180z" />
<glyph unicode="w" horiz-adv-x="1608" d="M142 1058h167l68 -843l466 843h144l89 -843l444 843h180l-571 -1058h-167l-88 851l-464 -851h-165z" />
<glyph unicode="x" horiz-adv-x="1066" d="M-92 0l523 544l-264 514h180l205 -403l383 403h198l-500 -514l289 -544h-182l-221 434l-414 -434h-197z" />
<glyph unicode="y" horiz-adv-x="1073" d="M-101 -406l57 147q40 -17 105 -17q44 0 79 22t77 83l107 165l-201 1064h172l159 -868l545 868h184l-815 -1273q-71 -111 -148.5 -162.5t-179.5 -51.5q-82 0 -141 23z" />
<glyph unicode="z" horiz-adv-x="1033" d="M-4 0l25 129l750 785h-574l33 144h798l-29 -125l-754 -789h587l-30 -144h-806z" />
<glyph unicode="{" horiz-adv-x="571" d="M-29 -182q0 13 1 29.5t7 29.5l100 451q2 11 3 19t1 19q0 48 -21.5 81t-63.5 33l27 110q63 0 97.5 44.5t48.5 105.5l101 450q33 151 122 223.5t215 72.5h136l-28 -121h-134q-70 0 -118.5 -45t-65.5 -128l-106 -477q-17 -71 -49.5 -121t-92.5 -73q35 -17 49.5 -48.5 t14.5 -69.5q0 -17 -2 -35.5t-6 -39.5l-100 -449q-2 -11 -3 -22.5t-1 -23.5q0 -57 35 -92.5t90 -35.5h121l-27 -121h-105q-48 0 -92 16.5t-78 47t-55 74.5t-21 96z" />
<glyph unicode="|" horiz-adv-x="462" d="M215 -44v1549h120v-1549h-120z" />
<glyph unicode="}" horiz-adv-x="571" d="M-175 -416l26 121h136q71 0 118.5 44t65.5 128l105 478q15 71 49.5 121t92.5 72q-35 17 -49 49t-14 70q0 17 2.5 35.5t6.5 37.5l98 450q2 11 3.5 23t1.5 23q0 57 -35 93t-93 36h-120l28 121h106q48 0 92 -16.5t77.5 -47.5t54.5 -74.5t21 -96.5q0 -13 -2 -30.5t-6 -28.5 l-99 -452q-2 -10 -3 -17.5t-1 -19.5q0 -48 22 -80.5t60 -32.5l-23 -110q-63 0 -98.5 -44.5t-48.5 -107.5l-100 -449q-36 -151 -124.5 -223t-216.5 -72h-133z" />
<glyph unicode="~" horiz-adv-x="1102" d="M149 941q21 100 55.5 194t81.5 166.5t109.5 115t143.5 42.5q75 0 115 -30.5t60 -77.5t27.5 -101t18.5 -101t32 -77.5t67 -30.5q42 0 80 30.5t72 86.5t62.5 132.5t51.5 171.5l119 -13q-24 -99 -56.5 -193.5t-81 -168t-111 -117t-142.5 -43.5q-75 0 -115.5 31t-60.5 77 t-28.5 100.5t-18 100.5t-31.5 76.5t-68 30.5q-82 0 -151 -115t-112 -304z" />
<glyph unicode="&#xa1;" horiz-adv-x="503" d="M-59 -403l268 1051h136l-198 -1051h-206zM224 951q0 55 38.5 92.5t92.5 37.5q46 0 77.5 -32.5t31.5 -78.5q0 -54 -38.5 -92.5t-92.5 -38.5q-46 0 -77.5 33t-31.5 79z" />
<glyph unicode="&#xa2;" horiz-adv-x="1086" d="M88 447q0 130 45 245t123.5 201t186 138t230.5 54l35 153h129l-37 -164q99 -17 168 -66.5t113 -120.5l-125 -94q-32 54 -81 87.5t-108 48.5l-180 -808h3q83 0 152 34.5t117 91.5l92 -111q-67 -71 -158.5 -117t-217.5 -46h-21l-41 -192h-130l46 210q-155 38 -248 155 t-93 301zM259 449q0 -125 55.5 -201.5t147.5 -107.5l178 793q-90 -11 -160 -53.5t-119.5 -108.5t-75.5 -149t-26 -173z" />
<glyph unicode="&#xa3;" horiz-adv-x="1134" d="M9 123q77 31 144.5 76.5t118 100.5t80 115t29.5 122q0 13 -1 25.5t-3 24.5h-322l24 118h254q-19 35 -40 69.5t-40 70.5t-30.5 76.5t-11.5 90.5q0 92 41 177.5t114 151.5t169 104t208 38q79 0 152 -18t133.5 -52.5t104.5 -82.5t61 -107l-164 -73q-19 79 -97 129.5 t-184 50.5q-67 0 -130 -23t-110 -67t-74 -105t-27 -138q0 -48 11.5 -86.5t29.5 -72t37.5 -66t34.5 -67.5h322l-26 -118h-265v-18q0 -59 -23 -113.5t-56.5 -101.5t-76.5 -85.5t-82 -61.5q26 10 48.5 13.5t53.5 3.5q53 0 95.5 -14.5t83.5 -30.5t81.5 -30.5t88.5 -14.5 q65 0 114.5 26t86.5 61l44 -146q-50 -44 -112.5 -74t-143.5 -30q-75 0 -131 15.5t-106 35.5t-102.5 35.5t-119.5 15.5q-56 0 -119 -23t-132 -65z" />
<glyph unicode="&#xa4;" horiz-adv-x="1143" d="M25 303l168 138q-36 63 -52 111t-16 125q0 109 45 202.5t131 176.5l-82 107l70 58l85 -106q78 55 153 74.5t140 19.5q96 0 171.5 -31.5t140.5 -92.5l171 140l55 -66l-170 -140q37 -59 52 -112.5t15 -124.5q0 -109 -46 -201t-129 -178l83 -104l-75 -60l-80 108 q-77 -55 -151.5 -76.5t-138.5 -21.5q-96 0 -173.5 33.5t-144.5 96.5l-172 -145zM232 690q0 -75 25 -136t70 -106t108 -69t137 -24q84 0 160.5 33t134 90t93 132.5t35.5 158.5q0 75 -25 136t-70 106t-107.5 69t-137.5 24q-84 0 -160.5 -32.5t-134 -90t-93 -132.5t-35.5 -159z " />
<glyph unicode="&#xa5;" horiz-adv-x="1371" d="M-11 268l26 115h552l54 235h-556l27 114h475l-337 730h199l305 -680l602 680h226l-657 -730h462l-24 -114h-541l-53 -235h541l-25 -115h-540l-58 -268h-182l59 268h-555z" />
<glyph unicode="&#xa6;" horiz-adv-x="462" d="M215 -44v692h120v-692h-120zM215 813v692h120v-692h-120z" />
<glyph unicode="&#xa7;" horiz-adv-x="1025" d="M-46 0l105 101q54 -73 152 -114.5t212 -41.5q111 0 178.5 57t67.5 140q0 55 -41 90.5t-102.5 62.5t-132.5 52t-132.5 60.5t-101.5 87t-40 130.5q0 105 79.5 189.5t238.5 109.5q-88 38 -143 95t-55 147q0 61 26 118t77 100.5t124 71t167 27.5q147 0 255.5 -43.5 t171.5 -120.5l-96 -90q-54 71 -144 101.5t-180 30.5q-107 0 -173 -50.5t-66 -124.5q0 -55 41 -89t103 -60.5t133 -50.5t133.5 -59t103.5 -88t41 -134q0 -100 -67 -187t-205 -125q87 -48 119 -103.5t32 -122.5t-28.5 -130.5t-81 -110.5t-128.5 -75.5t-172 -28.5 q-157 0 -275.5 47.5t-195.5 130.5zM285 655q0 -42 18.5 -71.5t54 -53.5t84.5 -43.5t110 -39.5q132 38 183 100.5t51 123.5q0 39 -16 68.5t-44.5 52.5t-65.5 41t-79 30q-155 -19 -225.5 -78.5t-70.5 -129.5z" />
<glyph unicode="&#xa8;" horiz-adv-x="595" d="M144 1313q0 44 34.5 77.5t80.5 33.5q37 0 63.5 -26t26.5 -64q0 -44 -35.5 -77.5t-79.5 -33.5q-37 0 -63.5 26t-26.5 64zM596 1313q0 44 34 77.5t80 33.5q38 0 64 -26t26 -64q0 -44 -34 -77.5t-80 -33.5q-38 0 -64 26t-26 64z" />
<glyph unicode="&#xa9;" horiz-adv-x="1704" d="M140 732q0 157 59.5 294t161 240.5t239.5 162.5t295 59t295 -59t241 -162.5t162 -240.5t59 -294q0 -155 -59 -293t-162 -241.5t-241 -163t-295 -59.5q-156 0 -294.5 59.5t-240 163t-161 241.5t-59.5 293zM209 732q0 -142 53.5 -267.5t147.5 -218.5t217.5 -147.5 t267.5 -54.5q142 0 267.5 54.5t218.5 147.5t148.5 218.5t55.5 267.5t-55.5 267.5t-148.5 219.5t-218.5 147.5t-267.5 53.5q-143 0 -267 -53.5t-218 -147.5t-147.5 -219.5t-53.5 -267.5zM434 673q0 111 43.5 208.5t116.5 168t166 111t191 40.5q112 0 199.5 -43t142.5 -133 l-68 -48q-39 75 -110.5 113.5t-165.5 38.5q-79 0 -156.5 -34.5t-139 -94t-100 -143t-38.5 -182.5q0 -70 24 -131t68 -107t107.5 -73t140.5 -27q73 0 140.5 30t110.5 74l44 -62q-59 -51 -133 -82.5t-162 -31.5q-99 0 -177 31.5t-132.5 87t-83 129.5t-28.5 160z" />
<glyph unicode="&#xaa;" horiz-adv-x="897" d="M190 991q0 85 28.5 163t78.5 137t119 94t147 35q83 0 147 -30.5t101 -87.5l21 101h126l-151 -688h-128l22 100q-99 -118 -234 -118q-55 0 -105.5 18.5t-88 55t-60.5 91t-23 129.5zM322 1004q0 -103 53.5 -153.5t137.5 -50.5q67 0 120 31.5t90 75.5l70 314 q-29 44 -84.5 71t-121.5 27q-56 0 -104.5 -25t-83.5 -69t-56 -101t-21 -120z" />
<glyph unicode="&#xab;" horiz-adv-x="961" d="M63 533l439 387h173l-447 -399l255 -383h-157zM379 533l438 387h174l-447 -399l253 -383h-155z" />
<glyph unicode="&#xac;" horiz-adv-x="1104" d="M140 885l27 117h966l-121 -540h-120l95 423h-847z" />
<glyph unicode="&#xad;" horiz-adv-x="656" d="M48 458l31 144h526l-30 -144h-527z" />
<glyph unicode="&#xae;" horiz-adv-x="1081" d="M184 1019q0 96 36.5 181.5t99.5 148t147.5 98.5t180.5 36q97 0 182.5 -36t148 -98.5t98.5 -148t36 -181.5q0 -97 -36 -181t-99.5 -147.5t-149 -100t-182.5 -36.5q-96 0 -180.5 36.5t-146.5 100t-98.5 147.5t-36.5 181zM247 1019q0 -84 31 -156t84.5 -126.5t127 -86.5 t156.5 -32q84 0 157 32t128.5 86.5t87 126.5t31.5 156q0 85 -31.5 157.5t-87 127.5t-128.5 85.5t-157 30.5q-83 0 -156.5 -30.5t-127 -85.5t-84.5 -127.5t-31 -157.5zM412 751l117 533h201q63 0 108 -37.5t45 -102.5q0 -40 -16 -72.5t-41.5 -56.5t-56.5 -37.5t-61 -13.5 l97 -213h-84l-92 211h-100l-46 -211h-71zM541 1025h149q50 0 84.5 32t34.5 80q0 40 -25 63t-65 23h-134z" />
<glyph unicode="&#xaf;" horiz-adv-x="795" d="M169 1295l24 106h794l-25 -106h-793z" />
<glyph unicode="&#xb0;" horiz-adv-x="634" d="M201 1217q0 54 21 103.5t57.5 85.5t84.5 56.5t103 20.5q54 0 104 -20.5t86.5 -56.5t57.5 -85.5t21 -103.5q0 -57 -21 -105.5t-57.5 -84.5t-86.5 -57t-104 -21q-55 0 -103 21t-84.5 57t-57.5 84t-21 106zM307 1217q0 -68 46 -114.5t111 -46.5q68 0 117.5 46.5t49.5 114.5 q0 65 -48 113t-116 48q-66 0 -113 -48t-47 -113z" />
<glyph unicode="&#xb1;" horiz-adv-x="1092" d="M-55 0l24 117h966l-23 -117h-967zM101 710l26 114h421l98 454h128l-101 -454h421l-27 -114h-421l-102 -467h-126l103 467h-420z" />
<glyph unicode="&#xb2;" horiz-adv-x="849" d="M195 922l24 108q145 88 260 159t195 135.5t121.5 122.5t41.5 119q0 71 -57 105t-129 34q-77 0 -139.5 -27.5t-105.5 -73.5l-61 86q58 58 138 90.5t172 32.5q59 0 115 -13.5t101 -43t72 -74.5t27 -109q0 -73 -43.5 -141.5t-119 -135.5t-176 -132.5t-215.5 -133.5h441 l-22 -108h-640z" />
<glyph unicode="&#xb3;" horiz-adv-x="849" d="M219 1067l88 77q44 -63 112 -96.5t146 -33.5q94 0 145 51.5t51 124.5q0 57 -60.5 93t-159.5 36h-35.5t-30.5 -2l25 109q24 -2 64.5 -3t68.5 -1q92 0 147 39.5t55 109.5q0 63 -61 98.5t-143 35.5q-67 0 -123 -23.5t-113 -71.5l-50 86q52 48 131.5 82.5t163.5 34.5 q67 0 126.5 -14.5t104.5 -42t71 -70t26 -97.5q0 -98 -68 -158.5t-177 -69.5q66 -13 117.5 -61t51.5 -127q0 -48 -21.5 -95.5t-62.5 -86t-101.5 -61.5t-137.5 -23q-121 0 -212.5 42t-137.5 118z" />
<glyph unicode="&#xb4;" horiz-adv-x="494" d="M147 1219l394 315h176l-441 -315h-129z" />
<glyph unicode="&#xb6;" horiz-adv-x="983" d="M173 1050q0 77 31.5 151t89 132t135 93.5t169.5 35.5h435l-374 -1681h-98l353 1582h-195l-353 -1582h-98l205 927q-61 0 -115.5 25.5t-95.5 71.5t-65 108t-24 137z" />
<glyph unicode="&#xb7;" horiz-adv-x="506" d="M132 526q0 55 38.5 93t92.5 38q46 0 77.5 -32.5t31.5 -78.5q0 -55 -38.5 -92.5t-92.5 -37.5q-46 0 -77.5 32t-31.5 78z" />
<glyph unicode="&#xb8;" horiz-adv-x="448" d="M-195 -335l59 78q38 -37 85 -56.5t97 -19.5q67 0 100.5 29.5t33.5 73.5q0 31 -21 48t-58 17q-46 0 -80 -36l-63 41l109 185h100l-88 -146q17 15 33.5 20t38.5 5q57 0 92 -33.5t35 -94.5q0 -87 -65.5 -140.5t-170.5 -53.5q-77 0 -138 24t-99 59z" />
<glyph unicode="&#xb9;" horiz-adv-x="514" d="M255 1558l291 241h115l-192 -877h-132l152 697l-171 -145z" />
<glyph unicode="&#xba;" horiz-adv-x="887" d="M195 1010q0 86 32 160t85.5 130.5t125.5 88t156 31.5q151 0 239.5 -86.5t88.5 -227.5q0 -85 -30.5 -159.5t-85.5 -130t-127 -87.5t-156 -32q-151 0 -239.5 86.5t-88.5 226.5zM326 1006q0 -92 54 -148t146 -56q61 0 110.5 26.5t84.5 69.5t53.5 97.5t18.5 113.5 q0 92 -54.5 148t-146.5 56q-61 0 -111 -26.5t-83.5 -69t-52.5 -97.5t-19 -114z" />
<glyph unicode="&#xbb;" horiz-adv-x="961" d="M-25 138l448 399l-254 383h155l263 -394l-438 -388h-174zM291 138l447 399l-253 383h155l263 -394l-439 -388h-173z" />
<glyph unicode="&#xbc;" horiz-adv-x="1686" d="M121 0l1255 1462h121l-1258 -1462h-118zM180 1221l291 241h116l-192 -877h-132l151 697l-171 -145zM851 219l19 99l504 558h182l-123 -550h125l-21 -107h-126l-48 -219h-131l48 219h-429zM1006 326h296l96 425z" />
<glyph unicode="&#xbd;" horiz-adv-x="1767" d="M121 0l1255 1462h121l-1258 -1462h-118zM180 1221l291 241h116l-192 -877h-132l151 697l-171 -145zM910 0l23 107q144 88 260 159t195.5 136t121.5 123t42 119q0 71 -57.5 104.5t-129.5 33.5q-77 0 -139.5 -27t-105.5 -73l-62 85q59 59 139.5 90.5t172.5 31.5 q58 0 114.5 -13t101.5 -42t72 -74t27 -109q0 -73 -43.5 -141.5t-119 -135.5t-177 -133t-214.5 -134h440l-22 -107h-639z" />
<glyph unicode="&#xbe;" horiz-adv-x="1923" d="M144 730l88 77q44 -63 112 -96.5t147 -33.5q94 0 144.5 51.5t50.5 124.5q0 57 -60.5 93t-158.5 36h-36.5t-29.5 -3l24 110q24 -2 65 -3t69 -1q92 0 147 39t55 110q0 63 -61.5 98t-143.5 35q-67 0 -123 -23t-113 -71l-50 86q52 48 132.5 81.5t162.5 33.5q67 0 126.5 -13.5 t104.5 -41.5t72 -70.5t27 -97.5q0 -99 -68 -158.5t-179 -69.5q66 -13 117.5 -61t51.5 -127q0 -49 -21.5 -96t-62.5 -85.5t-101 -61.5t-137 -23q-121 0 -213 42t-138 119zM357 0l1255 1462h121l-1258 -1462h-118zM1089 219l20 99l503 558h182l-122 -550h125l-22 -107h-125 l-48 -219h-132l48 219h-429zM1244 326h297l96 425z" />
<glyph unicode="&#xbf;" horiz-adv-x="862" d="M-73 -105q0 96 42 163t103.5 115t133.5 83t133.5 71.5t103.5 78t42 102.5q0 17 -8 40.5t-30 45.5l145 59q52 -73 52 -155q0 -80 -38.5 -134.5t-96 -95t-125.5 -73t-126.5 -69t-96.5 -84.5t-38 -117q0 -83 69 -136.5t199 -53.5q96 0 181 36t156 106l81 -122 q-101 -96 -209.5 -138t-231.5 -42q-96 0 -176.5 23t-139 65t-92 100.5t-33.5 131.5zM493 951q0 55 39.5 92.5t94.5 37.5q46 0 77.5 -33.5t31.5 -79.5q0 -54 -39.5 -91.5t-91.5 -37.5q-49 0 -80.5 33t-31.5 79z" />
<glyph unicode="&#xc0;" horiz-adv-x="1441" d="M-98 0l911 1462h226l265 -1462h-198l-58 326h-728l-201 -326h-217zM410 487h620l-135 788zM677 1911h172l253 -316h-125z" />
<glyph unicode="&#xc1;" horiz-adv-x="1441" d="M-98 0l911 1462h226l265 -1462h-198l-58 326h-728l-201 -326h-217zM410 487h620l-135 788zM809 1595l394 316h175l-440 -316h-129z" />
<glyph unicode="&#xc2;" horiz-adv-x="1441" d="M-98 0l911 1462h226l265 -1462h-198l-58 326h-728l-201 -326h-217zM410 487h620l-135 788zM669 1595l278 316h157l145 -316h-107l-132 233l-226 -233h-115z" />
<glyph unicode="&#xc3;" horiz-adv-x="1441" d="M-98 0l911 1462h226l265 -1462h-198l-58 326h-728l-201 -326h-217zM410 487h620l-135 788zM615 1604q13 63 34.5 117t52 93.5t71 61.5t93.5 22q61 0 92 -32t54 -69t46 -69t69 -32q44 0 77.5 45t58.5 143h100q-29 -129 -89.5 -211t-162.5 -82q-61 0 -91.5 31.5t-53.5 69 t-46 69t-67 31.5t-79.5 -45t-56.5 -143h-102z" />
<glyph unicode="&#xc4;" horiz-adv-x="1441" d="M-98 0l911 1462h226l265 -1462h-198l-58 326h-728l-201 -326h-217zM410 487h620l-135 788zM653 1683q0 44 34 77.5t80 33.5q38 0 64 -26t26 -63q0 -44 -35.5 -78t-78.5 -34q-38 0 -64 26.5t-26 63.5zM1104 1683q0 44 34.5 77.5t80.5 33.5q37 0 63.5 -26t26.5 -63 q0 -44 -34.5 -78t-80.5 -34q-37 0 -63.5 26.5t-26.5 63.5z" />
<glyph unicode="&#xc5;" horiz-adv-x="1441" d="M-98 0l911 1462h226l265 -1462h-198l-58 326h-728l-201 -326h-217zM410 487h620l-135 788zM769 1711q0 48 19 91t51.5 76t75.5 51.5t91 18.5q88 0 141.5 -54t53.5 -141q0 -48 -19 -91t-51.5 -75.5t-75.5 -51.5t-91 -19q-86 0 -140.5 55t-54.5 140zM857 1721 q0 -51 31.5 -84t81.5 -33q57 0 100 41.5t43 98.5q0 53 -30.5 85t-80.5 32q-57 0 -101 -42t-44 -98z" />
<glyph unicode="&#xc6;" horiz-adv-x="2076" d="M-103 0l1234 1462h1029l-34 -163h-776l-106 -471h763l-37 -161h-761l-111 -504h776l-36 -163h-957l70 326h-566l-272 -326h-216zM508 487h481l170 776z" />
<glyph unicode="&#xc7;" horiz-adv-x="1480" d="M132 613q0 197 69 358.5t183 275.5t262.5 176.5t306.5 62.5q220 0 370.5 -93.5t228.5 -250.5l-176 -68q-63 130 -179 190t-252 60q-119 0 -231 -50.5t-198.5 -142.5t-139 -221.5t-52.5 -286.5q0 -107 34.5 -197.5t98.5 -153.5t155 -99.5t205 -36.5q103 0 204 42.5 t188 126.5l136 -104q-119 -123 -260.5 -175.5t-277.5 -52.5h-21t-21 2l-57 -96q17 15 34 20t38 5q57 0 92 -33.5t35 -94.5q0 -87 -65.5 -140.5t-170.5 -53.5q-77 0 -138.5 24t-98.5 59l59 78q38 -37 85 -56.5t97 -19.5q68 0 101 29.5t33 73.5q0 31 -21 48t-58 17 q-46 0 -79 -36l-64 41l86 145q-119 19 -218.5 71.5t-171.5 134t-111.5 188t-39.5 234.5z" />
<glyph unicode="&#xc8;" horiz-adv-x="1246" d="M52 0l322 1462h958l-35 -163h-776l-105 -471h763l-37 -161h-761l-111 -504h775l-35 -163h-958zM605 1911h171l254 -316h-125z" />
<glyph unicode="&#xc9;" horiz-adv-x="1246" d="M52 0l322 1462h958l-35 -163h-776l-105 -471h763l-37 -161h-761l-111 -504h775l-35 -163h-958zM734 1595l395 316h175l-441 -316h-129z" />
<glyph unicode="&#xca;" horiz-adv-x="1246" d="M52 0l322 1462h958l-35 -163h-776l-105 -471h763l-37 -161h-761l-111 -504h775l-35 -163h-958zM592 1595l278 316h158l145 -316h-108l-132 233l-225 -233h-116z" />
<glyph unicode="&#xcb;" horiz-adv-x="1246" d="M52 0l322 1462h958l-35 -163h-776l-105 -471h763l-37 -161h-761l-111 -504h775l-35 -163h-958zM579 1683q0 44 33.5 77.5t79.5 33.5q38 0 64 -26t26 -63q0 -44 -34.5 -78t-78.5 -34q-38 0 -64 26.5t-26 63.5zM1030 1683q0 44 34 77.5t80 33.5q37 0 63.5 -26t26.5 -63 q0 -44 -34 -78t-80 -34q-37 0 -63.5 26.5t-26.5 63.5z" />
<glyph unicode="&#xcc;" horiz-adv-x="523" d="M52 0l322 1462h182l-322 -1462h-182zM215 1911h170l255 -316h-125z" />
<glyph unicode="&#xcd;" horiz-adv-x="523" d="M52 0l322 1462h182l-322 -1462h-182zM351 1595l394 316h175l-440 -316h-129z" />
<glyph unicode="&#xce;" horiz-adv-x="523" d="M52 0l322 1462h182l-322 -1462h-182zM207 1595l278 316h157l144 -316h-107l-131 233l-226 -233h-115z" />
<glyph unicode="&#xcf;" horiz-adv-x="523" d="M52 0l322 1462h182l-322 -1462h-182zM190 1683q0 44 34.5 77.5t80.5 33.5q37 0 63.5 -26t26.5 -63q0 -44 -35.5 -78t-79.5 -34q-37 0 -63.5 26.5t-26.5 63.5zM642 1683q0 44 34 77.5t80 33.5q38 0 64 -26t26 -63q0 -44 -34 -78t-80 -34q-38 0 -64 26.5t-26 63.5z" />
<glyph unicode="&#xd0;" horiz-adv-x="1594" d="M48 657l35 150h208l146 655h487q124 0 233.5 -46t192.5 -129.5t132.5 -197.5t49.5 -252q0 -149 -55 -297.5t-168 -269.5t-285.5 -195.5t-412.5 -74.5h-498l146 657h-211zM331 163h311q160 0 290.5 53.5t220 144.5t139 211t49.5 256q0 101 -34 187.5t-94.5 150t-143 98.5 t-180.5 35h-306l-110 -492h370l-32 -150h-370z" />
<glyph unicode="&#xd1;" horiz-adv-x="1550" d="M52 0l322 1462h187l585 -1153l257 1153h182l-322 -1462h-176l-592 1177l-261 -1177h-182zM667 1604q12 63 33 117t51.5 93.5t71 61.5t93.5 22q61 0 92 -32t54 -69t46 -69t69 -32q44 0 77.5 45t58.5 143h100q-28 -129 -88.5 -211t-163.5 -82q-61 0 -91.5 31.5t-53.5 69 t-46 69t-67 31.5t-79 -45t-57 -143h-100z" />
<glyph unicode="&#xd2;" horiz-adv-x="1675" d="M132 613q0 184 64.5 343t175.5 277.5t260.5 185.5t320.5 67q141 0 263.5 -42.5t214.5 -124t145 -201t53 -269.5q0 -185 -64 -344.5t-175.5 -277.5t-261.5 -186t-321 -68q-140 0 -263 43t-215.5 125.5t-144.5 201.5t-52 270zM324 623q0 -119 38.5 -209t106.5 -152.5 t157 -94t191 -31.5q126 0 237.5 52.5t196.5 145.5t134.5 222.5t49.5 280.5q0 119 -38 208.5t-106 152t-158 94.5t-190 32q-126 0 -238.5 -52.5t-197 -145.5t-134 -222.5t-49.5 -280.5zM800 1911h170l255 -316h-125z" />
<glyph unicode="&#xd3;" horiz-adv-x="1675" d="M132 613q0 184 64.5 343t175.5 277.5t260.5 185.5t320.5 67q141 0 263.5 -42.5t214.5 -124t145 -201t53 -269.5q0 -185 -64 -344.5t-175.5 -277.5t-261.5 -186t-321 -68q-140 0 -263 43t-215.5 125.5t-144.5 201.5t-52 270zM324 623q0 -119 38.5 -209t106.5 -152.5 t157 -94t191 -31.5q126 0 237.5 52.5t196.5 145.5t134.5 222.5t49.5 280.5q0 119 -38 208.5t-106 152t-158 94.5t-190 32q-126 0 -238.5 -52.5t-197 -145.5t-134 -222.5t-49.5 -280.5zM927 1595l394 316h176l-441 -316h-129z" />
<glyph unicode="&#xd4;" horiz-adv-x="1675" d="M132 613q0 184 64.5 343t175.5 277.5t260.5 185.5t320.5 67q141 0 263.5 -42.5t214.5 -124t145 -201t53 -269.5q0 -185 -64 -344.5t-175.5 -277.5t-261.5 -186t-321 -68q-140 0 -263 43t-215.5 125.5t-144.5 201.5t-52 270zM324 623q0 -119 38.5 -209t106.5 -152.5 t157 -94t191 -31.5q126 0 237.5 52.5t196.5 145.5t134.5 222.5t49.5 280.5q0 119 -38 208.5t-106 152t-158 94.5t-190 32q-126 0 -238.5 -52.5t-197 -145.5t-134 -222.5t-49.5 -280.5zM786 1595l279 316h158l144 -316h-107l-131 233l-226 -233h-117z" />
<glyph unicode="&#xd5;" horiz-adv-x="1675" d="M132 613q0 184 64.5 343t175.5 277.5t260.5 185.5t320.5 67q141 0 263.5 -42.5t214.5 -124t145 -201t53 -269.5q0 -185 -64 -344.5t-175.5 -277.5t-261.5 -186t-321 -68q-140 0 -263 43t-215.5 125.5t-144.5 201.5t-52 270zM324 623q0 -119 38.5 -209t106.5 -152.5 t157 -94t191 -31.5q126 0 237.5 52.5t196.5 145.5t134.5 222.5t49.5 280.5q0 119 -38 208.5t-106 152t-158 94.5t-190 32q-126 0 -238.5 -52.5t-197 -145.5t-134 -222.5t-49.5 -280.5zM732 1604q13 63 33.5 117t52 93.5t71.5 61.5t93 22q61 0 91.5 -32t53.5 -69t46 -69 t69 -32q44 0 78.5 45t57.5 143h101q-29 -129 -89 -211t-163 -82q-61 0 -92 31.5t-54 69t-46 69t-67 31.5t-78.5 -45t-57.5 -143h-100z" />
<glyph unicode="&#xd6;" horiz-adv-x="1675" d="M132 613q0 184 64.5 343t175.5 277.5t260.5 185.5t320.5 67q141 0 263.5 -42.5t214.5 -124t145 -201t53 -269.5q0 -185 -64 -344.5t-175.5 -277.5t-261.5 -186t-321 -68q-140 0 -263 43t-215.5 125.5t-144.5 201.5t-52 270zM324 623q0 -119 38.5 -209t106.5 -152.5 t157 -94t191 -31.5q126 0 237.5 52.5t196.5 145.5t134.5 222.5t49.5 280.5q0 119 -38 208.5t-106 152t-158 94.5t-190 32q-126 0 -238.5 -52.5t-197 -145.5t-134 -222.5t-49.5 -280.5zM767 1683q0 44 34 77.5t80 33.5q37 0 63 -26t26 -63q0 -44 -34.5 -78t-78.5 -34 q-37 0 -63.5 26.5t-26.5 63.5zM1219 1683q0 44 33.5 77.5t79.5 33.5q38 0 64 -26t26 -63q0 -44 -33.5 -78t-79.5 -34q-38 0 -64 26.5t-26 63.5z" />
<glyph unicode="&#xd7;" horiz-adv-x="1092" d="M105 410l405 330l-251 320l92 75l249 -322l402 329l69 -88l-400 -329l249 -322l-90 -75l-251 323l-399 -329z" />
<glyph unicode="&#xd8;" horiz-adv-x="1675" d="M132 613q0 184 64.5 343t175.5 277.5t260.5 185.5t320.5 67q239 0 414 -119l86 95h147l-147 -165q84 -81 130 -193.5t46 -254.5q0 -185 -64 -344.5t-175.5 -277.5t-261.5 -186t-321 -68q-123 0 -230.5 32t-195.5 93l-88 -98h-146l152 171q-78 82 -122.5 192t-44.5 250z M324 623q0 -99 26.5 -177t72.5 -137l824 923q-64 46 -141.5 69t-162.5 23q-126 0 -238.5 -52.5t-197 -145.5t-134 -222.5t-49.5 -280.5zM502 232q129 -96 315 -96q126 0 237.5 52.5t196.5 145.5t134.5 222.5t49.5 280.5q0 100 -28.5 180.5t-78.5 139.5z" />
<glyph unicode="&#xd9;" horiz-adv-x="1535" d="M167 460q0 31 3 60.5t8 46.5l196 895h185l-197 -890q-2 -10 -6.5 -36t-4.5 -56q0 -74 26 -137t75.5 -109t120.5 -72t163 -26q101 0 176 30.5t129.5 86.5t89.5 137t57 182l197 890h184l-197 -893q-31 -136 -78 -245t-122.5 -187t-182 -121t-253.5 -43q-136 0 -242.5 34.5 t-178.5 98t-110 153.5t-38 201zM725 1911h172l253 -316h-125z" />
<glyph unicode="&#xda;" horiz-adv-x="1535" d="M167 460q0 31 3 60.5t8 46.5l196 895h185l-197 -890q-2 -10 -6.5 -36t-4.5 -56q0 -74 26 -137t75.5 -109t120.5 -72t163 -26q101 0 176 30.5t129.5 86.5t89.5 137t57 182l197 890h184l-197 -893q-31 -136 -78 -245t-122.5 -187t-182 -121t-253.5 -43q-136 0 -242.5 34.5 t-178.5 98t-110 153.5t-38 201zM853 1595l394 316h175l-440 -316h-129z" />
<glyph unicode="&#xdb;" horiz-adv-x="1535" d="M167 460q0 31 3 60.5t8 46.5l196 895h185l-197 -890q-2 -10 -6.5 -36t-4.5 -56q0 -74 26 -137t75.5 -109t120.5 -72t163 -26q101 0 176 30.5t129.5 86.5t89.5 137t57 182l197 890h184l-197 -893q-31 -136 -78 -245t-122.5 -187t-182 -121t-253.5 -43q-136 0 -242.5 34.5 t-178.5 98t-110 153.5t-38 201zM723 1595l279 316h157l145 -316h-108l-131 233l-226 -233h-116z" />
<glyph unicode="&#xdc;" horiz-adv-x="1535" d="M167 460q0 31 3 60.5t8 46.5l196 895h185l-197 -890q-2 -10 -6.5 -36t-4.5 -56q0 -74 26 -137t75.5 -109t120.5 -72t163 -26q101 0 176 30.5t129.5 86.5t89.5 137t57 182l197 890h184l-197 -893q-31 -136 -78 -245t-122.5 -187t-182 -121t-253.5 -43q-136 0 -242.5 34.5 t-178.5 98t-110 153.5t-38 201zM699 1683q0 44 34 77.5t80 33.5q38 0 64 -26t26 -63q0 -44 -35.5 -78t-78.5 -34q-38 0 -64 26.5t-26 63.5zM1150 1683q0 44 34.5 77.5t80.5 33.5q37 0 63.5 -26t26.5 -63q0 -44 -34.5 -78t-80.5 -34q-37 0 -63.5 26.5t-26.5 63.5z" />
<glyph unicode="&#xdd;" horiz-adv-x="1371" d="M224 1462h199l305 -680l602 680h226l-761 -844l-136 -618h-182l136 618zM780 1595l395 316h175l-440 -316h-130z" />
<glyph unicode="&#xde;" horiz-adv-x="1286" d="M52 0l322 1462h182l-56 -261h383q81 0 151 -29.5t121.5 -81t81.5 -120.5t30 -148q0 -86 -31 -174.5t-99 -162t-173 -119.5t-256 -46h-403l-71 -320h-182zM339 483h382q90 0 157 27t111 73t65.5 104t21.5 122q0 48 -19.5 90t-53 73.5t-78 49t-93.5 17.5h-370z" />
<glyph unicode="&#xdf;" horiz-adv-x="1307" d="M48 0l241 1094q17 81 54.5 152t94.5 123.5t132.5 83t169.5 30.5q71 0 140 -18t122.5 -53.5t88 -83.5t34.5 -109q0 -73 -32.5 -120t-80.5 -81t-102.5 -59.5t-102.5 -51.5t-80.5 -60t-32.5 -82q0 -46 40 -77t99 -55t127 -48t127 -58t98.5 -83t39.5 -126q0 -63 -26 -126 t-79 -111t-129.5 -78t-175.5 -30q-153 0 -256 46t-191 152l103 103q57 -73 140 -119t209 -46q58 0 103 16.5t76 43t46 60.5t15 70q0 50 -39 81.5t-97 55.5t-127 47t-127.5 54.5t-97.5 79t-39 121.5q0 75 30.5 125.5t77.5 87t100.5 62.5t100.5 51t78 54.5t31 71.5 q0 35 -18.5 62.5t-49 46t-69 28t-78.5 9.5q-105 0 -182 -64.5t-100 -177.5l-241 -1094h-165z" />
<glyph unicode="&#xe0;" horiz-adv-x="1259" d="M88 410q0 129 38.5 250.5t110.5 215.5t174 151.5t231 57.5q125 0 220.5 -53t147.5 -140l38 166h164l-235 -1058h-164l33 151q-65 -84 -153 -131t-195 -47q-90 0 -165.5 30t-130.5 85.5t-84.5 137t-29.5 184.5zM261 441q0 -149 82 -234.5t213 -85.5q101 0 186.5 53.5 t138.5 126.5l103 466q-39 71 -121 121t-199 50q-89 0 -164 -41.5t-127.5 -111.5t-82 -160t-29.5 -184zM464 1534h172l253 -315h-124z" />
<glyph unicode="&#xe1;" horiz-adv-x="1259" d="M88 410q0 129 38.5 250.5t110.5 215.5t174 151.5t231 57.5q125 0 220.5 -53t147.5 -140l38 166h164l-235 -1058h-164l33 151q-65 -84 -153 -131t-195 -47q-90 0 -165.5 30t-130.5 85.5t-84.5 137t-29.5 184.5zM261 441q0 -149 82 -234.5t213 -85.5q101 0 186.5 53.5 t138.5 126.5l103 466q-39 71 -121 121t-199 50q-89 0 -164 -41.5t-127.5 -111.5t-82 -160t-29.5 -184zM596 1219l395 315h175l-441 -315h-129z" />
<glyph unicode="&#xe2;" horiz-adv-x="1259" d="M88 410q0 129 38.5 250.5t110.5 215.5t174 151.5t231 57.5q125 0 220.5 -53t147.5 -140l38 166h164l-235 -1058h-164l33 151q-65 -84 -153 -131t-195 -47q-90 0 -165.5 30t-130.5 85.5t-84.5 137t-29.5 184.5zM261 441q0 -149 82 -234.5t213 -85.5q101 0 186.5 53.5 t138.5 126.5l103 466q-39 71 -121 121t-199 50q-89 0 -164 -41.5t-127.5 -111.5t-82 -160t-29.5 -184zM458 1219l278 315h159l144 -315h-108l-131 232l-225 -232h-117z" />
<glyph unicode="&#xe3;" horiz-adv-x="1259" d="M88 410q0 129 38.5 250.5t110.5 215.5t174 151.5t231 57.5q125 0 220.5 -53t147.5 -140l38 166h164l-235 -1058h-164l33 151q-65 -84 -153 -131t-195 -47q-90 0 -165.5 30t-130.5 85.5t-84.5 137t-29.5 184.5zM261 441q0 -149 82 -234.5t213 -85.5q101 0 186.5 53.5 t138.5 126.5l103 466q-39 71 -121 121t-199 50q-89 0 -164 -41.5t-127.5 -111.5t-82 -160t-29.5 -184zM403 1227q13 63 34 117t51.5 93.5t71 61t93.5 21.5q61 0 92 -31.5t54 -69t46 -69t69 -31.5q44 0 77.5 45t58.5 144h100q-29 -130 -88.5 -212t-162.5 -82q-61 0 -92 32 t-54 69t-46 69t-67 32t-79 -45t-57 -144h-101z" />
<glyph unicode="&#xe4;" horiz-adv-x="1259" d="M88 410q0 129 38.5 250.5t110.5 215.5t174 151.5t231 57.5q125 0 220.5 -53t147.5 -140l38 166h164l-235 -1058h-164l33 151q-65 -84 -153 -131t-195 -47q-90 0 -165.5 30t-130.5 85.5t-84.5 137t-29.5 184.5zM261 441q0 -149 82 -234.5t213 -85.5q101 0 186.5 53.5 t138.5 126.5l103 466q-39 71 -121 121t-199 50q-89 0 -164 -41.5t-127.5 -111.5t-82 -160t-29.5 -184zM443 1313q0 44 33.5 77.5t79.5 33.5q38 0 64 -26t26 -64q0 -44 -34.5 -77.5t-78.5 -33.5q-38 0 -64 26t-26 64zM895 1313q0 44 33.5 77.5t79.5 33.5q37 0 63.5 -26 t26.5 -64q0 -44 -34 -77.5t-80 -33.5q-37 0 -63 26t-26 64z" />
<glyph unicode="&#xe5;" horiz-adv-x="1259" d="M88 410q0 129 38.5 250.5t110.5 215.5t174 151.5t231 57.5q125 0 220.5 -53t147.5 -140l38 166h164l-235 -1058h-164l33 151q-65 -84 -153 -131t-195 -47q-90 0 -165.5 30t-130.5 85.5t-84.5 137t-29.5 184.5zM261 441q0 -149 82 -234.5t213 -85.5q101 0 186.5 53.5 t138.5 126.5l103 466q-39 71 -121 121t-199 50q-89 0 -164 -41.5t-127.5 -111.5t-82 -160t-29.5 -184zM577 1394q0 48 18 90.5t51 75.5t76 52t91 19q88 0 141.5 -54t53.5 -142q0 -48 -19 -90.5t-51.5 -75.5t-75 -52t-91.5 -19q-85 0 -139.5 55.5t-54.5 140.5zM664 1403 q0 -51 32 -84t82 -33q57 0 99.5 42t42.5 98q0 53 -30.5 85t-80.5 32q-57 0 -101 -42t-44 -98z" />
<glyph unicode="&#xe6;" horiz-adv-x="2057" d="M88 410q0 129 38.5 250.5t110.5 215.5t175 151.5t232 57.5q125 0 219.5 -53t148.5 -140l36 166h164l-39 -175q75 92 172 147t209 55q201 0 305 -125t104 -329q0 -39 -6 -85t-13 -71h-853q-2 -6 -2 -22v-28q0 -61 22 -118.5t67 -99.5t113 -68t158 -26q77 0 153.5 27 t139.5 77l57 -119q-73 -54 -164.5 -89.5t-183.5 -35.5q-176 0 -279 79.5t-139 200.5l-56 -253h-164l36 151q-66 -84 -155 -131t-196 -47q-90 0 -165.5 30t-130.5 85.5t-84.5 137t-29.5 184.5zM263 441q0 -149 81 -234.5t212 -85.5q101 0 187.5 53.5t137.5 126.5l103 466 q-37 71 -120 121t-200 50q-89 0 -164 -41.5t-127.5 -111.5t-81 -160t-28.5 -184zM1109 598h701q3 7 3 19v21q0 133 -77.5 222t-234.5 89q-73 0 -138.5 -28.5t-118 -77t-87.5 -111.5t-48 -134z" />
<glyph unicode="&#xe7;" horiz-adv-x="1086" d="M88 447q0 132 46 247t126.5 202.5t189.5 138t234 50.5q146 0 243.5 -53t153.5 -145l-125 -94q-42 73 -113.5 109t-154.5 36q-98 0 -178.5 -40.5t-136 -108.5t-85 -156.5t-29.5 -183.5q0 -81 25 -142.5t70 -102.5t105 -62t131 -21q83 0 152 34.5t117 91.5l92 -111 q-67 -71 -158.5 -117t-217.5 -46h-25l-57 -94q17 15 34 20t38 5q57 0 92 -33.5t35 -94.5q0 -87 -65.5 -140.5t-170.5 -53.5q-77 0 -138 24t-99 59l59 78q38 -37 85 -56.5t97 -19.5q68 0 101 29.5t33 73.5q0 31 -21 48t-58 17q-46 0 -78 -36l-65 41l86 145 q-169 31 -269.5 150.5t-100.5 311.5z" />
<glyph unicode="&#xe8;" horiz-adv-x="1233" d="M88 443q0 132 46 249t125.5 203.5t189.5 138t235 51.5q105 0 189.5 -34.5t143.5 -95t91 -146.5t32 -186q0 -38 -6.5 -80.5t-11.5 -67.5h-861q-2 -6 -3 -22t-1 -28q0 -61 23 -118.5t68 -100.5t111.5 -70t155.5 -27q77 0 159.5 27t145.5 79l57 -117q-73 -54 -171.5 -89.5 t-200.5 -35.5q-121 0 -217.5 34.5t-163.5 96t-101.5 147.5t-34.5 192zM276 598h706h7q0 7 1 19t1 21q0 133 -82.5 222t-239.5 89q-73 0 -139 -28.5t-118 -77t-87.5 -111.5t-48.5 -134zM498 1534h171l253 -315h-125z" />
<glyph unicode="&#xe9;" horiz-adv-x="1233" d="M88 443q0 132 46 249t125.5 203.5t189.5 138t235 51.5q105 0 189.5 -34.5t143.5 -95t91 -146.5t32 -186q0 -38 -6.5 -80.5t-11.5 -67.5h-861q-2 -6 -3 -22t-1 -28q0 -61 23 -118.5t68 -100.5t111.5 -70t155.5 -27q77 0 159.5 27t145.5 79l57 -117q-73 -54 -171.5 -89.5 t-200.5 -35.5q-121 0 -217.5 34.5t-163.5 96t-101.5 147.5t-34.5 192zM276 598h706h7q0 7 1 19t1 21q0 133 -82.5 222t-239.5 89q-73 0 -139 -28.5t-118 -77t-87.5 -111.5t-48.5 -134zM629 1219l394 315h175l-439 -315h-130z" />
<glyph unicode="&#xea;" horiz-adv-x="1233" d="M88 443q0 132 46 249t125.5 203.5t189.5 138t235 51.5q105 0 189.5 -34.5t143.5 -95t91 -146.5t32 -186q0 -38 -6.5 -80.5t-11.5 -67.5h-861q-2 -6 -3 -22t-1 -28q0 -61 23 -118.5t68 -100.5t111.5 -70t155.5 -27q77 0 159.5 27t145.5 79l57 -117q-73 -54 -171.5 -89.5 t-200.5 -35.5q-121 0 -217.5 34.5t-163.5 96t-101.5 147.5t-34.5 192zM276 598h706h7q0 7 1 19t1 21q0 133 -82.5 222t-239.5 89q-73 0 -139 -28.5t-118 -77t-87.5 -111.5t-48.5 -134zM489 1219l278 315h157l145 -315h-107l-132 232l-225 -232h-116z" />
<glyph unicode="&#xeb;" horiz-adv-x="1233" d="M88 443q0 132 46 249t125.5 203.5t189.5 138t235 51.5q105 0 189.5 -34.5t143.5 -95t91 -146.5t32 -186q0 -38 -6.5 -80.5t-11.5 -67.5h-861q-2 -6 -3 -22t-1 -28q0 -61 23 -118.5t68 -100.5t111.5 -70t155.5 -27q77 0 159.5 27t145.5 79l57 -117q-73 -54 -171.5 -89.5 t-200.5 -35.5q-121 0 -217.5 34.5t-163.5 96t-101.5 147.5t-34.5 192zM276 598h706h7q0 7 1 19t1 21q0 133 -82.5 222t-239.5 89q-73 0 -139 -28.5t-118 -77t-87.5 -111.5t-48.5 -134zM473 1313q0 44 34 77.5t80 33.5q38 0 64 -26t26 -64q0 -44 -35 -77.5t-79 -33.5 q-38 0 -64 26t-26 64zM924 1313q0 44 34.5 77.5t80.5 33.5q37 0 63.5 -26t26.5 -64q0 -44 -34.5 -77.5t-80.5 -33.5q-37 0 -63.5 26t-26.5 64z" />
<glyph unicode="&#xec;" horiz-adv-x="492" d="M46 0l234 1058h165l-234 -1058h-165zM117 1534h170l254 -315h-125z" />
<glyph unicode="&#xed;" horiz-adv-x="492" d="M46 0l234 1058h165l-234 -1058h-165zM249 1219l395 315h176l-441 -315h-130z" />
<glyph unicode="&#xee;" horiz-adv-x="492" d="M46 0l234 1058h165l-234 -1058h-165zM109 1219l278 315h159l144 -315h-107l-131 232l-226 -232h-117z" />
<glyph unicode="&#xef;" horiz-adv-x="492" d="M46 0l234 1058h165l-234 -1058h-165zM94 1313q0 44 34.5 77.5t80.5 33.5q37 0 63.5 -26t26.5 -64q0 -44 -35.5 -77.5t-79.5 -33.5q-37 0 -63.5 26t-26.5 64zM546 1313q0 44 33.5 77.5t79.5 33.5q38 0 64 -26t26 -64q0 -44 -33.5 -77.5t-79.5 -33.5q-38 0 -64 26t-26 64z " />
<glyph unicode="&#xf0;" d="M86 425q0 131 43.5 245t118 198.5t174 133t211.5 48.5q55 0 108.5 -13.5t102 -42t89 -72.5t66.5 -105q-37 110 -104 212t-159 194l-345 -103l-21 89l289 86q-35 31 -70 59t-72 57l116 126q57 -44 110.5 -90t102.5 -95l256 76l18 -89l-206 -61q121 -143 187.5 -297.5 t66.5 -316.5q0 -142 -42.5 -268t-120.5 -219.5t-186.5 -148.5t-239.5 -55q-109 0 -200.5 34.5t-156.5 95t-100.5 142t-35.5 180.5zM259 443q0 -142 83.5 -232t238.5 -90q83 0 156.5 37t127 100.5t85.5 150t32 183.5q0 54 -18.5 110.5t-58 101.5t-101 72t-147.5 27 q-81 0 -153.5 -35.5t-127 -97.5t-86 -146.5t-31.5 -180.5z" />
<glyph unicode="&#xf1;" horiz-adv-x="1209" d="M52 0l235 1058h165l-36 -153q71 68 166 124t209 56q140 0 227.5 -67t87.5 -194q0 -17 -4 -45t-8 -45l-163 -734h-162l153 694q5 18 8 36.5t3 38.5q0 92 -62 130.5t-156 38.5q-92 0 -179 -51.5t-149 -115.5l-170 -771h-165zM416 1227q13 63 34 117t52 93.5t71 61t94 21.5 q61 0 91.5 -31.5t53.5 -69t46 -69t69 -31.5q43 0 77.5 45t58.5 144h100q-29 -130 -89 -212t-162 -82q-61 0 -92 32t-54 69t-46 69t-67 32t-79 -45t-57 -144h-101z" />
<glyph unicode="&#xf2;" d="M88 445q0 125 43.5 240t122.5 203.5t187.5 142.5t235.5 54q114 0 203.5 -34.5t152.5 -96.5t95.5 -147.5t32.5 -191.5q0 -125 -43.5 -240.5t-122.5 -204.5t-187 -143t-236 -54q-113 0 -203.5 34.5t-153 97t-95 148.5t-32.5 192zM261 449q0 -150 82.5 -239t233.5 -89 q90 0 165 41t130 109t86 156t31 182q0 151 -82.5 240t-233.5 89q-90 0 -166 -41.5t-130.5 -109.5t-85 -155.5t-30.5 -182.5zM498 1534h171l253 -315h-125z" />
<glyph unicode="&#xf3;" d="M88 445q0 125 43.5 240t122.5 203.5t187.5 142.5t235.5 54q114 0 203.5 -34.5t152.5 -96.5t95.5 -147.5t32.5 -191.5q0 -125 -43.5 -240.5t-122.5 -204.5t-187 -143t-236 -54q-113 0 -203.5 34.5t-153 97t-95 148.5t-32.5 192zM261 449q0 -150 82.5 -239t233.5 -89 q90 0 165 41t130 109t86 156t31 182q0 151 -82.5 240t-233.5 89q-90 0 -166 -41.5t-130.5 -109.5t-85 -155.5t-30.5 -182.5zM629 1219l394 315h175l-439 -315h-130z" />
<glyph unicode="&#xf4;" d="M88 445q0 125 43.5 240t122.5 203.5t187.5 142.5t235.5 54q114 0 203.5 -34.5t152.5 -96.5t95.5 -147.5t32.5 -191.5q0 -125 -43.5 -240.5t-122.5 -204.5t-187 -143t-236 -54q-113 0 -203.5 34.5t-153 97t-95 148.5t-32.5 192zM261 449q0 -150 82.5 -239t233.5 -89 q90 0 165 41t130 109t86 156t31 182q0 151 -82.5 240t-233.5 89q-90 0 -166 -41.5t-130.5 -109.5t-85 -155.5t-30.5 -182.5zM491 1219l278 315h158l144 -315h-107l-132 232l-225 -232h-116z" />
<glyph unicode="&#xf5;" d="M88 445q0 125 43.5 240t122.5 203.5t187.5 142.5t235.5 54q114 0 203.5 -34.5t152.5 -96.5t95.5 -147.5t32.5 -191.5q0 -125 -43.5 -240.5t-122.5 -204.5t-187 -143t-236 -54q-113 0 -203.5 34.5t-153 97t-95 148.5t-32.5 192zM261 449q0 -150 82.5 -239t233.5 -89 q90 0 165 41t130 109t86 156t31 182q0 151 -82.5 240t-233.5 89q-90 0 -166 -41.5t-130.5 -109.5t-85 -155.5t-30.5 -182.5zM439 1227q13 63 33.5 117t51 93.5t71.5 61t93 21.5q61 0 92 -31.5t54 -69t46 -69t69 -31.5q44 0 77.5 45t58.5 144h101q-29 -130 -89.5 -212 t-163.5 -82q-61 0 -91.5 32t-53.5 69t-46 69t-67 32t-79 -45t-57 -144h-100z" />
<glyph unicode="&#xf6;" d="M88 445q0 125 43.5 240t122.5 203.5t187.5 142.5t235.5 54q114 0 203.5 -34.5t152.5 -96.5t95.5 -147.5t32.5 -191.5q0 -125 -43.5 -240.5t-122.5 -204.5t-187 -143t-236 -54q-113 0 -203.5 34.5t-153 97t-95 148.5t-32.5 192zM261 449q0 -150 82.5 -239t233.5 -89 q90 0 165 41t130 109t86 156t31 182q0 151 -82.5 240t-233.5 89q-90 0 -166 -41.5t-130.5 -109.5t-85 -155.5t-30.5 -182.5zM473 1313q0 44 34 77.5t80 33.5q38 0 64 -26t26 -64q0 -44 -35 -77.5t-79 -33.5q-38 0 -64 26t-26 64zM924 1313q0 44 34.5 77.5t80.5 33.5 q37 0 63.5 -26t26.5 -64q0 -44 -34.5 -77.5t-80.5 -33.5q-37 0 -63.5 26t-26.5 64z" />
<glyph unicode="&#xf7;" horiz-adv-x="1119" d="M96 682l25 113h992l-24 -113h-993zM410 309q0 44 32.5 75.5t76.5 31.5q40 0 66 -27t26 -65q0 -46 -32.5 -76.5t-76.5 -30.5q-38 0 -65 27.5t-27 64.5zM596 1146q0 44 31.5 75.5t77.5 31.5q38 0 65 -27.5t27 -64.5q0 -46 -32.5 -77.5t-78.5 -31.5q-38 0 -64 27t-26 67z " />
<glyph unicode="&#xf8;" d="M17 0l156 153q-85 119 -85 292q0 125 43.5 240t122.5 203.5t187.5 142.5t235.5 54q103 0 185.5 -28.5t145.5 -79.5l81 81h128l-150 -146q94 -121 94 -297q0 -125 -43.5 -240.5t-122.5 -204.5t-187.5 -143t-235.5 -54q-107 0 -192 30t-148 85l-88 -88h-127zM261 449 q0 -98 38 -173l590 585q-39 38 -94 57.5t-122 19.5q-90 0 -166 -41.5t-130.5 -109.5t-85 -155.5t-30.5 -182.5zM351 201q81 -80 226 -80q90 0 165 41t130 109t86 156t31 182q0 105 -44 182z" />
<glyph unicode="&#xf9;" horiz-adv-x="1206" d="M107 234q0 17 3 45t9 45l161 734h165l-154 -694q-4 -15 -7.5 -35t-3.5 -38q0 -92 63 -131t157 -39q90 0 176.5 51.5t147.5 114.5l171 771h164l-235 -1058h-163l34 153q-71 -67 -164.5 -123.5t-207.5 -56.5q-143 0 -229.5 67t-86.5 194zM480 1534h171l254 -315h-125z" />
<glyph unicode="&#xfa;" horiz-adv-x="1206" d="M107 234q0 17 3 45t9 45l161 734h165l-154 -694q-4 -15 -7.5 -35t-3.5 -38q0 -92 63 -131t157 -39q90 0 176.5 51.5t147.5 114.5l171 771h164l-235 -1058h-163l34 153q-71 -67 -164.5 -123.5t-207.5 -56.5q-143 0 -229.5 67t-86.5 194zM609 1219l395 315h175l-441 -315 h-129z" />
<glyph unicode="&#xfb;" horiz-adv-x="1206" d="M107 234q0 17 3 45t9 45l161 734h165l-154 -694q-4 -15 -7.5 -35t-3.5 -38q0 -92 63 -131t157 -39q90 0 176.5 51.5t147.5 114.5l171 771h164l-235 -1058h-163l34 153q-71 -67 -164.5 -123.5t-207.5 -56.5q-143 0 -229.5 67t-86.5 194zM467 1219l278 315h158l145 -315 h-107l-132 232l-226 -232h-116z" />
<glyph unicode="&#xfc;" horiz-adv-x="1206" d="M107 234q0 17 3 45t9 45l161 734h165l-154 -694q-4 -15 -7.5 -35t-3.5 -38q0 -92 63 -131t157 -39q90 0 176.5 51.5t147.5 114.5l171 771h164l-235 -1058h-163l34 153q-71 -67 -164.5 -123.5t-207.5 -56.5q-143 0 -229.5 67t-86.5 194zM458 1313q0 44 34 77.5t80 33.5 q38 0 63.5 -26t25.5 -64q0 -44 -34.5 -77.5t-78.5 -33.5q-38 0 -64 26t-26 64zM910 1313q0 44 33.5 77.5t79.5 33.5q37 0 63.5 -26t26.5 -64q0 -44 -34 -77.5t-80 -33.5q-37 0 -63 26t-26 64z" />
<glyph unicode="&#xfd;" horiz-adv-x="1073" d="M-101 -406l57 147q40 -17 105 -17q44 0 79 22t77 83l107 165l-201 1064h172l159 -868l545 868h184l-815 -1273q-71 -111 -148.5 -162.5t-179.5 -51.5q-82 0 -141 23zM541 1219l394 315h176l-440 -315h-130z" />
<glyph unicode="&#xfe;" d="M-44 -403l412 1865h165l-121 -555q65 84 153 131t196 47q92 0 166.5 -30t129 -85.5t84.5 -137t30 -184.5q0 -129 -38.5 -250.5t-111 -215.5t-175.5 -151.5t-231 -57.5q-125 0 -219.5 53t-148.5 141l-126 -570h-165zM274 291q40 -71 121.5 -120.5t198.5 -49.5q90 0 164 41 t127 112t82.5 159t29.5 185q0 149 -82.5 234.5t-213.5 85.5q-101 0 -186.5 -54t-137.5 -125z" />
<glyph unicode="&#xff;" horiz-adv-x="1073" d="M-101 -406l57 147q40 -17 105 -17q44 0 79 22t77 83l107 165l-201 1064h172l159 -868l545 868h184l-815 -1273q-71 -111 -148.5 -162.5t-179.5 -51.5q-82 0 -141 23zM383 1313q0 44 34.5 77.5t80.5 33.5q37 0 63 -26t26 -64q0 -44 -35 -77.5t-79 -33.5q-38 0 -64 26 t-26 64zM835 1313q0 44 34 77.5t80 33.5q38 0 64 -26t26 -64q0 -44 -34.5 -77.5t-80.5 -33.5q-37 0 -63 26t-26 64z" />
<glyph unicode="&#x11e;" horiz-adv-x="1562" d="M132 613q0 191 65.5 351.5t179.5 276.5t266 180.5t323 64.5q209 0 354.5 -91t222.5 -229l-165 -75q-57 112 -174 172.5t-259 60.5q-123 0 -235 -52.5t-197.5 -145.5t-137 -221.5t-51.5 -281.5q0 -109 35.5 -198.5t98.5 -153.5t155 -99.5t204 -35.5q126 0 221 47t165 108 l66 299h-504l35 161h686l-119 -534q-113 -119 -254 -181.5t-306 -62.5q-149 0 -274 47t-214 131.5t-138 202t-49 259.5zM759 1775l92 70q37 -73 103.5 -115.5t165.5 -42.5q97 0 183 42t154 116l70 -70q-86 -90 -196 -141t-229 -51t-207 51t-136 141z" />
<glyph unicode="&#x11f;" horiz-adv-x="1259" d="M-9 -249l103 111q57 -81 150 -118t216 -37q59 0 114 16t102 54.5t83 102t58 155.5l32 134q-64 -81 -156.5 -129.5t-203.5 -48.5q-83 0 -156.5 26.5t-128.5 80t-86.5 136t-31.5 193.5q0 125 38.5 243.5t109.5 210.5t172.5 148t231.5 56q52 0 105.5 -14.5t103.5 -40.5 t90 -61.5t71 -76.5l37 166h167l-230 -1023q-31 -131 -82 -221t-120.5 -143.5t-149.5 -76.5t-166 -23q-150 0 -268.5 37t-204.5 143zM259 454q0 -149 79.5 -233.5t215.5 -84.5q92 0 180 50t144 121l101 456q-44 81 -133.5 128t-194.5 47q-90 0 -163.5 -41.5t-123.5 -109.5 t-77.5 -154.5t-27.5 -178.5zM439 1426l92 71q37 -73 103.5 -115.5t165.5 -42.5q97 0 183 41.5t154 116.5l70 -71q-86 -90 -196 -141t-229 -51t-207 51t-136 141z" />
<glyph unicode="&#x130;" horiz-adv-x="523" d="M52 0l322 1462h182l-322 -1462h-182zM416 1683q0 46 34.5 80t80.5 34q39 0 65.5 -25.5t26.5 -64.5q0 -49 -35.5 -82.5t-79.5 -33.5q-39 0 -65.5 26.5t-26.5 65.5z" />
<glyph unicode="&#x131;" horiz-adv-x="492" d="M46 0l234 1058h165l-234 -1058h-165z" />
<glyph unicode="&#x152;" horiz-adv-x="2421" d="M132 613q0 193 66.5 353.5t179.5 275.5t262 178t316 63q85 0 165 -17t147.5 -58t123 -105.5t87.5 -156.5l70 316h958l-35 -163h-776l-105 -471h761l-35 -161h-763l-112 -504h778l-35 -163h-958l46 224q-85 -114 -217 -182.5t-309 -68.5q-136 0 -249 47t-195 133 t-126.5 203t-44.5 257zM324 623q0 -112 35.5 -202t98.5 -154t151 -97.5t193 -33.5q158 0 297 79.5t225 225.5l107 488q-31 188 -158 290t-317 102q-130 0 -245 -53.5t-200.5 -146.5t-136 -221.5t-50.5 -276.5z" />
<glyph unicode="&#x153;" horiz-adv-x="2107" d="M88 445q0 123 42.5 237.5t120 204.5t185.5 144t237 54q98 0 173.5 -32t127 -78t81.5 -98.5t39 -94.5q28 44 69.5 96.5t98.5 98.5t132.5 77t169.5 31q99 0 181.5 -32t144 -91t95 -144.5t33.5 -194.5q0 -38 -5.5 -77.5t-13.5 -70.5h-853q-2 -6 -2 -20v-30q0 -63 23 -120.5 t67 -99.5t110.5 -69t154.5 -27q79 0 160 29t138 77l57 -117q-70 -56 -165.5 -90.5t-200.5 -34.5q-102 0 -182.5 30t-137.5 76t-91 98.5t-42 98.5q-29 -44 -68.5 -96.5t-95.5 -98.5t-130 -77t-174 -31q-107 0 -194.5 32t-151.5 93.5t-98.5 148t-34.5 198.5zM261 449 q0 -150 80 -239t231 -89q88 0 162.5 39t129 107t85 155.5t30.5 186.5q0 88 -25 150.5t-68 102t-99.5 58t-117.5 18.5q-86 0 -160.5 -39.5t-129.5 -106.5t-86.5 -155.5t-31.5 -187.5zM1163 598h702q4 17 4 40q0 63 -19.5 120t-60.5 100t-99.5 67t-137.5 24q-80 0 -148 -33 t-118 -84.5t-81.5 -113t-41.5 -120.5z" />
<glyph unicode="&#x15e;" horiz-adv-x="1284" d="M35 236l125 130q78 -105 202.5 -167.5t279.5 -62.5q86 0 147.5 25t99.5 64.5t56.5 88t18.5 94.5q0 72 -53.5 119.5t-135 84t-174.5 73t-173.5 84.5t-134.5 117.5t-54 171.5q0 86 38.5 162.5t107.5 136t164 94.5t210 35q169 0 308.5 -62.5t216.5 -170.5l-123 -126 q-75 100 -189.5 148.5t-235.5 48.5q-63 0 -119 -20t-96.5 -52.5t-63.5 -76.5t-23 -90q0 -65 53.5 -110.5t134.5 -82.5t174 -73.5t174.5 -86.5t135 -120.5t53.5 -174.5q0 -88 -35 -171.5t-101.5 -148.5t-166.5 -104.5t-229 -39.5q-19 0 -39.5 1t-39.5 5l-59 -100 q17 15 33.5 20t38.5 5q56 0 91.5 -33.5t35.5 -94.5q0 -87 -66 -140.5t-170 -53.5q-78 0 -138.5 24t-98.5 59l59 78q37 -37 84.5 -56.5t97.5 -19.5q67 0 100.5 29.5t33.5 73.5q0 31 -21 48t-59 17q-46 0 -79 -36l-63 41l88 151q-142 27 -253 91.5t-168 153.5z" />
<glyph unicode="&#x15f;" horiz-adv-x="1018" d="M6 163l105 111q22 -31 57 -61.5t81 -53.5t100 -37.5t113 -14.5q117 0 180 57t63 129q0 50 -41 84.5t-102.5 60.5t-134 52.5t-134 61.5t-103 83.5t-41.5 123.5q0 65 26 124.5t78 104.5t126.5 71t170.5 26q136 0 243.5 -50.5t162.5 -122.5l-97 -107q-37 58 -125 102 t-193 44q-104 0 -165.5 -47t-61.5 -115q0 -49 41.5 -79.5t102.5 -56.5t133.5 -52t133.5 -62.5t103 -88t42 -128.5q0 -71 -27.5 -133t-80 -110t-130.5 -77t-178 -29h-20t-20 2l-57 -96q17 15 34 20t38 5q57 0 92 -33.5t35 -94.5q0 -87 -65.5 -140.5t-170.5 -53.5 q-77 0 -138 24t-99 59l59 78q38 -37 85 -56.5t97 -19.5q68 0 101 29.5t33 73.5q0 31 -21 48t-58 17q-46 0 -78 -36l-65 41l86 145q-201 33 -316 178z" />
<glyph unicode="&#x178;" horiz-adv-x="1371" d="M224 1462h199l305 -680l602 680h226l-761 -844l-136 -618h-182l136 618zM623 1683q0 44 33.5 77.5t79.5 33.5q38 0 64 -26t26 -63q0 -44 -35 -78t-78 -34q-38 0 -64 26.5t-26 63.5zM1074 1683q0 44 34 77.5t80 33.5q37 0 63.5 -26t26.5 -63q0 -44 -34.5 -78t-80.5 -34 q-37 0 -63 26.5t-26 63.5z" />
<glyph unicode="&#x2c6;" horiz-adv-x="579" d="M151 1219l278 315h158l145 -315h-107l-132 232l-225 -232h-117z" />
<glyph unicode="&#x2da;" horiz-adv-x="429" d="M195 1409q0 48 18.5 91t52 75.5t75.5 51.5t90 19q88 0 142 -53.5t54 -141.5q0 -48 -18.5 -91t-52 -76t-75.5 -51.5t-90 -18.5q-86 0 -141 55t-55 140zM282 1418q0 -51 32.5 -83.5t82.5 -32.5q57 0 99.5 41.5t42.5 98.5q0 53 -31 84.5t-81 31.5q-57 0 -101 -42t-44 -98z " />
<glyph unicode="&#x2dc;" horiz-adv-x="685" d="M153 1227q13 63 34.5 117t52 93.5t71 61t92.5 21.5q61 0 92 -31.5t54 -69t46 -69t69 -31.5q44 0 78 45t58 144h101q-29 -130 -89.5 -212t-163.5 -82q-61 0 -91.5 32t-53.5 69t-46 69t-66 32q-44 0 -79.5 -45t-56.5 -144h-102z" />
<glyph unicode="&#x2000;" horiz-adv-x="974" />
<glyph unicode="&#x2001;" horiz-adv-x="1948" />
<glyph unicode="&#x2002;" horiz-adv-x="974" />
<glyph unicode="&#x2003;" horiz-adv-x="1948" />
<glyph unicode="&#x2004;" horiz-adv-x="649" />
<glyph unicode="&#x2005;" horiz-adv-x="487" />
<glyph unicode="&#x2006;" horiz-adv-x="324" />
<glyph unicode="&#x2007;" horiz-adv-x="324" />
<glyph unicode="&#x2008;" horiz-adv-x="243" />
<glyph unicode="&#x2009;" horiz-adv-x="389" />
<glyph unicode="&#x200a;" horiz-adv-x="108" />
<glyph unicode="&#x2010;" horiz-adv-x="656" d="M48 458l31 144h526l-30 -144h-527z" />
<glyph unicode="&#x2011;" horiz-adv-x="656" d="M48 458l31 144h526l-30 -144h-527z" />
<glyph unicode="&#x2012;" horiz-adv-x="656" d="M48 458l31 144h526l-30 -144h-527z" />
<glyph unicode="&#x2013;" horiz-adv-x="1298" d="M48 458l31 144h1168l-30 -144h-1169z" />
<glyph unicode="&#x2014;" horiz-adv-x="1824" d="M48 458l31 144h1694l-31 -144h-1694z" />
<glyph unicode="&#x2018;" horiz-adv-x="503" d="M239 1129q0 52 19.5 103.5t55 99.5t81.5 86.5t96 64.5l68 -70q-59 -31 -112.5 -81t-72.5 -103h19q37 0 65.5 -27t28.5 -71q0 -55 -40.5 -92t-91.5 -37q-48 0 -82 32t-34 95z" />
<glyph unicode="&#x2019;" horiz-adv-x="503" d="M241 1071q61 31 114 81.5t70 103.5h-17q-38 0 -65 27.5t-27 71.5q0 54 39.5 91t89.5 37q48 0 82 -31.5t34 -94.5q0 -53 -21 -104.5t-54.5 -100t-79.5 -88t-97 -65.5z" />
<glyph unicode="&#x201a;" horiz-adv-x="503" d="M-40 -193q59 31 113 80.5t71 103.5h-17q-37 0 -65.5 26.5t-28.5 72.5q0 52 40 90.5t92 38.5q48 0 81.5 -32t33.5 -95q0 -52 -20.5 -103.5t-54.5 -100t-80 -88t-96 -65.5z" />
<glyph unicode="&#x201c;" horiz-adv-x="853" d="M255 1129q0 52 20 103.5t55.5 99.5t81.5 86.5t96 64.5l67 -70q-59 -31 -113 -81t-71 -103h17q37 0 65.5 -27t28.5 -71q0 -55 -40.5 -92t-91.5 -37q-48 0 -81.5 32t-33.5 95zM602 1129q0 52 21 103.5t56.5 99.5t81.5 86.5t96 64.5l67 -70q-61 -31 -113 -81t-71 -103h19 q37 0 64.5 -27t27.5 -71q0 -55 -41 -92t-91 -37q-46 0 -81.5 32t-35.5 95z" />
<glyph unicode="&#x201d;" horiz-adv-x="853" d="M241 1071q61 31 114 81.5t70 103.5h-17q-38 0 -65 27.5t-27 71.5q0 54 39.5 91t89.5 37q48 0 82 -31.5t34 -94.5q0 -53 -21 -104.5t-54.5 -100t-79.5 -88t-97 -65.5zM592 1071q59 31 111.5 81.5t72.5 103.5h-17q-38 0 -66.5 27.5t-28.5 71.5q0 54 40.5 91t90.5 37 q48 0 82.5 -31.5t34.5 -94.5q0 -53 -21 -104.5t-56 -100t-81 -88t-97 -65.5z" />
<glyph unicode="&#x201e;" horiz-adv-x="853" d="M-40 -193q59 31 113 80.5t71 103.5h-17q-37 0 -65.5 26.5t-28.5 72.5q0 52 40 90.5t92 38.5q48 0 81.5 -32t33.5 -95q0 -52 -20.5 -103.5t-54.5 -100t-80 -88t-96 -65.5zM311 -193q59 31 111.5 80.5t70.5 103.5h-18q-37 0 -64.5 26.5t-27.5 72.5q0 52 40.5 90.5 t91.5 38.5q48 0 82 -32t34 -95q0 -52 -20.5 -103.5t-56 -100t-81.5 -88t-96 -65.5z" />
<glyph unicode="&#x2022;" horiz-adv-x="784" d="M153 508q0 53 22 100t58.5 82t84.5 56t100 21q92 0 152.5 -60.5t60.5 -152.5q0 -52 -22 -99t-58 -82.5t-84.5 -56.5t-100.5 -21q-92 0 -152.5 60.5t-60.5 152.5z" />
<glyph unicode="&#x2026;" horiz-adv-x="1514" d="M35 90q0 52 38 90.5t94 38.5q46 0 77.5 -33t31.5 -79q0 -55 -38.5 -91.5t-93.5 -36.5q-46 0 -77.5 31.5t-31.5 79.5zM539 90q0 52 38 90.5t94 38.5q46 0 77.5 -33t31.5 -79q0 -55 -38.5 -91.5t-93.5 -36.5q-46 0 -77.5 31.5t-31.5 79.5zM1043 90q0 52 38.5 90.5 t93.5 38.5q48 0 79.5 -33t31.5 -79q0 -55 -39.5 -91.5t-94.5 -36.5q-46 0 -77.5 31.5t-31.5 79.5z" />
<glyph unicode="&#x202f;" horiz-adv-x="389" />
<glyph unicode="&#x2039;" horiz-adv-x="646" d="M63 533l439 387h173l-447 -399l255 -383h-157z" />
<glyph unicode="&#x203a;" horiz-adv-x="646" d="M-25 138l448 399l-254 383h155l263 -394l-438 -388h-174z" />
<glyph unicode="&#x205f;" horiz-adv-x="487" />
<glyph unicode="&#x20ac;" horiz-adv-x="1522" d="M63 519l27 114h94q4 107 23 197h-75l25 117h84q48 125 127 225.5t179.5 169.5t218 106.5t240.5 37.5q219 0 370 -93.5t228 -250.5l-176 -68q-63 130 -179 190t-252 60q-85 0 -166.5 -26.5t-153.5 -74.5t-132 -118t-100 -158h688l-27 -117h-703q-26 -92 -26 -197h686 l-26 -114h-652q31 -173 158.5 -278t326.5 -105q103 0 204 42.5t189 126.5l135 -104q-118 -123 -260.5 -175.5t-278.5 -52.5q-134 0 -249 38.5t-203.5 108.5t-146 172.5t-72.5 226.5h-125z" />
<glyph unicode="&#x2122;" horiz-adv-x="994" d="M230 1405l11 57h334l-12 -57h-136l-94 -426h-61l94 426h-136zM548 979l105 483h94l64 -351l217 351h94l-106 -483h-60l87 399l-252 -399h-17l-77 399l-88 -399h-61z" />
<glyph unicode="&#xe000;" horiz-adv-x="1062" d="M0 0v1063h1063v-1063h-1063z" />
</font>
</defs>
</svg>
